<?xml version="1.0" encoding="utf-8"?>
<!-- Generator: Adobe Illustrator 24.3.0, SVG Export Plug-In . SVG Version: 6.00 Build 0)  -->
<svg version="1.1" id="Layer_1" xmlns="http://www.w3.org/2000/svg" xmlns:xlink="http://www.w3.org/1999/xlink" x="0px" y="0px"
	 viewBox="0 0 1920 1080" style="enable-background:new 0 0 1920 1080;" xml:space="preserve">
<g>
	<path d="M920.51,669.06c-20.2-6.33-39.06-15.41-56.36-27.66c-29.86-21.14-49.19-49.7-59.28-84.72
		c-5.51-19.13-8.23-38.75-8.78-58.58c-0.51-18.62,0.05-37.26-0.21-55.89c-0.25-18.04,12.76-32.9,32.16-33.88
		c14.24-0.72,28.1-3.55,41.43-8.76c12.71-4.96,24.18-11.94,34.43-20.93c4.91-4.3,9.48-9.04,16.01-10.92c2.35,0,4.7,0,7.05,0
		c6.43,1.85,10.97,6.46,15.8,10.72c17.35,15.28,37.58,24.47,60.34,28.07c6.27,0.99,12.62,1.47,18.93,2.25
		c17.07,2.13,28.8,14.98,28.84,32.25c0.05,21.96,0.44,43.95-0.7,65.86c-1.51,28.99-7.62,57.04-21.61,82.91
		c-12.29,22.72-29.43,40.93-50.91,55.11c-14.44,9.54-29.98,16.85-46.26,22.64c-1.65,0.58-3.34,1.03-5.01,1.53
		C924.42,669.06,922.47,669.06,920.51,669.06z M1033.29,473.87c0-10.98,0.08-21.96-0.03-32.94c-0.08-7.95-4.78-13.35-12.59-14.5
		c-9.18-1.35-18.5-1.99-27.58-3.82c-25.03-5.06-46.88-16.5-65.53-34.03c-4.35-4.09-3.81-4.15-8.14-0.08
		c-18.72,17.61-40.66,29.09-65.79,34.15c-8.99,1.81-18.2,2.43-27.29,3.76c-8,1.17-12.58,6.54-12.74,14.7
		c-0.23,11.67-0.54,23.34-0.54,35c0,23.18,1.49,46.21,6.99,68.85c7.09,29.2,21.06,54.25,43.98,73.97
		c16.94,14.57,36.44,24.53,57.37,31.85c1.41,0.49,3.35,0.36,4.76-0.21c7.8-3.13,15.67-6.13,23.21-9.81
		c44.72-21.86,70.88-57.77,79.82-106.59C1032.84,514.24,1033.88,494.09,1033.29,473.87z"/>
	<path d="M923.42,593.49c-41.22-0.07-74.77-33.66-74.93-75.04c-0.16-41.17,34.25-75.61,75.12-75.15
		c41.53,0.46,75.06,34.17,74.78,75.2C998.12,559.97,964.54,593.55,923.42,593.49z M980.71,518.51
		c0.23-31.45-25.62-57.44-57.22-57.53c-31.35-0.09-56.82,25.28-57.34,57.14c-0.51,31.24,25.27,57.28,57.1,57.67
		C954.52,576.19,980.48,550.3,980.71,518.51z"/>
	<path d="M910,530.19c10.7-10.74,20.92-20.99,31.15-31.25c1.31-1.32,2.58-2.68,3.97-3.92c3.82-3.42,9-3.32,12.4,0.16
		c3.34,3.42,3.39,8.8-0.15,12.43c-6.35,6.53-12.83,12.92-19.26,19.36c-6.91,6.93-13.81,13.88-20.75,20.78
		c-4.77,4.76-9.55,4.77-14.3,0.06c-4.73-4.69-9.44-9.39-14.11-14.14c-4.02-4.08-4.3-9.45-0.76-13.09c3.7-3.8,9-3.58,13.25,0.65
		C904.26,524.07,906.97,527.02,910,530.19z"/>
</g>
<g>
</g>
<g>
</g>
<g>
</g>
<g>
</g>
<g>
</g>
<g>
</g>
<g>
</g>
<g>
</g>
<g>
</g>
<g>
</g>
<g>
</g>
<g>
</g>
<g>
</g>
<g>
</g>
<g>
</g>
</svg>
