<?xml version="1.0" encoding="utf-8"?>
<!-- Generator: Adobe Illustrator 24.3.0, SVG Export Plug-In . SVG Version: 6.00 Build 0)  -->
<svg version="1.1" id="Layer_1" xmlns="http://www.w3.org/2000/svg" xmlns:xlink="http://www.w3.org/1999/xlink" x="0px" y="0px"
	 viewBox="0 0 1920 1080" style="enable-background:new 0 0 1920 1080;" xml:space="preserve">
<g>
	<path d="M720.36,539.73c0.25-132.38,107.85-239.66,240.02-239.31c132.44,0.35,239.75,108.04,239.26,240.09
		c-0.5,132.27-107.77,239.23-239.79,239.08C827.49,779.44,720.11,671.88,720.36,539.73z M959.93,324.38
		c-118.83,0.06-215.55,96.75-215.61,215.55c-0.06,118.74,96.61,215.52,215.48,215.7c118.87,0.18,216.05-96.97,215.87-215.82
		C1175.5,420.98,1078.7,324.32,959.93,324.38z"/>
	<path d="M888.11,539.84c0-28.77-0.08-57.54,0.08-86.3c0.03-4.77,0.47-9.69,1.73-14.27c3.67-13.35,14.23-18.88,27.35-14.42
		c4.19,1.42,8.26,3.56,11.97,5.99c41.99,27.5,83.91,55.11,125.82,82.72c9.07,5.98,16.25,13.43,16.97,24.99
		c0.82,13.01-6.58,21.52-16.6,28.16c-20.09,13.31-40.31,26.42-60.48,39.61c-21.83,14.29-43.58,28.71-65.57,42.75
		c-4.81,3.07-10.3,5.49-15.81,6.95c-9.53,2.52-18.37-1.8-21.97-10.96c-2.13-5.42-3.27-11.57-3.33-17.41
		C887.93,598.38,888.11,569.11,888.11,539.84z M912.07,539.88c0,24.45,0,48.89,0,73.34c0,1.5-0.08,3.01,0.09,4.49
		c0.75,6.61,5.36,9.2,11.36,6.39c1.35-0.63,2.61-1.46,3.86-2.27c36.44-23.84,72.88-47.68,109.31-71.54
		c10.29-6.74,10.27-13.43-0.03-20.22c-36.37-23.95-72.75-47.88-109.14-71.8c-1.66-1.09-3.35-2.23-5.19-2.92
		c-4.87-1.82-8.68,0.21-9.85,5.25c-0.44,1.91-0.39,3.96-0.4,5.95C912.06,490.99,912.07,515.44,912.07,539.88z"/>
</g>
<g>
</g>
<g>
</g>
<g>
</g>
<g>
</g>
<g>
</g>
<g>
</g>
<g>
</g>
<g>
</g>
<g>
</g>
<g>
</g>
<g>
</g>
<g>
</g>
<g>
</g>
<g>
</g>
<g>
</g>
</svg>
