<?xml version="1.0" encoding="utf-8"?>
<!-- Generator: Adobe Illustrator 24.3.0, SVG Export Plug-In . SVG Version: 6.00 Build 0)  -->
<svg version="1.1" id="Layer_1" xmlns="http://www.w3.org/2000/svg" xmlns:xlink="http://www.w3.org/1999/xlink" x="0px" y="0px"
	 viewBox="0 0 1920 1080" style="enable-background:new 0 0 1920 1080;" xml:space="preserve">
<path d="M794.66,492.57c2.72-9.46,9.38-13.39,18.83-13.5c1.95-0.02,3.89-0.35,5.83-0.52c24.6-2.21,49.21-4.44,73.82-6.61
	c1.99-0.18,3-0.97,3.8-2.85c10.78-25.41,21.7-50.76,32.49-76.16c2.92-6.87,7.73-11.08,15.31-11.09c7.59-0.02,12.42,4.19,15.34,11.05
	c10.75,25.32,21.61,50.58,32.35,75.91c0.87,2.04,1.93,2.98,4.2,3.18c26.94,2.34,53.88,4.76,80.82,7.24c2.69,0.25,5.51,0.65,7.96,1.7
	c10.78,4.63,12.76,18.69,3.74,26.68c-15.94,14.12-32,28.1-48.01,42.14c-4.99,4.38-9.92,8.84-15.03,13.08
	c-1.76,1.46-2.09,2.8-1.59,4.98c6.19,26.9,12.25,53.83,18.41,80.75c1.64,7.16,0.13,13.31-5.89,17.7c-6.02,4.38-12.35,4-18.65,0.23
	c-23.69-14.2-47.42-28.34-71.08-42.58c-1.84-1.1-3.14-1.12-4.98-0.01c-23.67,14.24-47.38,28.4-71.1,42.56
	c-7.93,4.74-16.38,3.59-21.63-2.89c-3.44-4.24-4.32-9.09-3.13-14.34c6.08-26.83,12.14-53.66,18.36-80.46
	c0.69-2.95,0.13-4.67-2.16-6.65c-19.77-17.16-39.39-34.5-59.14-51.68c-3.89-3.38-7.31-6.96-8.84-12
	C794.66,496.47,794.66,494.52,794.66,492.57z M866.1,647.56c1.25-0.71,2.1-1.16,2.92-1.65c21.86-13.07,43.78-26.05,65.56-39.27
	c6.94-4.21,13.36-4.25,20.3-0.05c21.7,13.15,43.53,26.09,65.31,39.11c0.92,0.55,1.87,1.06,3.16,1.79c-0.17-0.93-0.23-1.31-0.31-1.68
	c-5.82-25.69-11.6-51.38-17.49-77.05c-1.65-7.19,0.19-12.98,5.77-17.84c19.15-16.68,38.21-33.46,57.31-50.21
	c0.97-0.85,1.91-1.73,3.29-2.99c-1.26-0.21-1.82-0.34-2.38-0.39c-25.77-2.35-51.53-4.78-77.31-6.97
	c-7.87-0.67-12.91-4.4-15.96-11.65c-9.83-23.37-19.86-46.66-29.83-69.98c-0.44-1.04-0.96-2.04-1.69-3.6
	c-0.92,2.05-1.64,3.6-2.31,5.16c-9.81,22.96-19.64,45.91-29.4,68.89c-2.72,6.4-7.23,10.35-14.25,10.99
	c-24.21,2.23-48.43,4.39-72.64,6.59c-2.65,0.24-5.3,0.55-8.71,0.91c1.33,1.14,2.06,1.77,2.78,2.4c19.39,17,38.77,34.02,58.19,50.98
	c5.38,4.7,7.22,10.42,5.63,17.36c-4.15,18.16-8.26,36.33-12.38,54.5C869.81,630.99,868.01,639.06,866.1,647.56z"/>
<g>
</g>
<g>
</g>
<g>
</g>
<g>
</g>
<g>
</g>
<g>
</g>
<g>
</g>
<g>
</g>
<g>
</g>
<g>
</g>
<g>
</g>
<g>
</g>
<g>
</g>
<g>
</g>
<g>
</g>
</svg>
