<?xml version="1.0" encoding="utf-8"?>
<!-- Generator: Adobe Illustrator 24.3.0, SVG Export Plug-In . SVG Version: 6.00 Build 0)  -->
<svg version="1.1" id="Layer_1" xmlns="http://www.w3.org/2000/svg" xmlns:xlink="http://www.w3.org/1999/xlink" x="0px" y="0px"
	 viewBox="0 0 1920 1080" style="enable-background:new 0 0 1920 1080;" xml:space="preserve">
<g>
	<path d="M722.62,418.82c4.12-5.86,6.7-6.48,13.16-3.13c27.31,14.17,54.62,28.35,81.93,42.53c7.97,4.14,8.35,4.9,6.71,13.76
		c-0.11,0.58-0.13,1.18-0.23,2.22c11.9-2.96,23.49-5.68,34.99-8.75c16.72-4.47,32.79-3.51,48.23,4.78c0.89,0.48,2.71,0.29,3.52-0.34
		c11.65-9.01,24.39-10.77,38.5-6.99c17.08,4.57,34.34,8.46,51.52,12.64c1.17,0.28,2.36,0.5,4.06,0.86c-0.58-2.54-1.1-4.67-1.55-6.81
		c-1.02-4.86,0.17-7.59,4.55-9.86c28.62-14.9,57.24-29.79,85.89-44.63c6.47-3.35,11.94-0.05,11.95,7.19
		c0.03,44.16,0.02,88.32,0,132.48c0,4.57-1.71,7.01-6,8.37c-20.17,6.42-40.36,12.8-60.56,19.13c-5.11,1.6-8.87-0.54-10.36-5.62
		c-0.31-1.06-0.56-2.13-0.94-3.56c-4.26,2.08-8.28,3.96-12.2,6.03c-0.69,0.37-1.22,1.48-1.39,2.34
		c-2.76,14.54-8.91,20.65-23.61,23.18c-1.76,14-9.72,22.06-23.8,23.78c-1.66,15.91-14.19,26.38-31.76,22.78
		c-3.86,10.39-12.27,17.19-20.35,23.84c-13.62,11.2-34.5,3.19-38.18-14.06c-0.31-1.45-0.55-2.92-0.87-4.57
		c-6.09-0.56-11.62-2.54-16.08-6.92c-3.86-3.78-6.44-8.28-7.04-13.69c-0.28-2.55-1.25-3.4-3.89-3.74
		c-10.18-1.33-18.48-9.83-19.96-20.02c-0.26-1.77-0.27-3.19-2.71-3.65c-16.25-3.09-23.91-14.95-20.39-31.23
		c0.1-0.46,0.14-0.94,0.23-1.57c-1.75-0.85-3.42-1.65-5.35-2.58c-0.35,1.04-0.71,1.92-0.95,2.83c-1.61,6.11-5.14,8.15-11.17,6.26
		c-19.36-6.09-38.69-12.28-58.07-18.3c-3.36-1.05-6.09-2.63-7.86-5.71C722.62,511.64,722.62,465.23,722.62,418.82z M895.42,481.39
		c-7.44-3.44-17.37-4.77-25.37-2.93c-13.95,3.2-27.76,7.08-41.78,9.94c-6.35,1.29-9.12,3.96-10.46,10.43
		c-3.93,18.89-8.75,37.59-13.12,56.38c-0.24,1.04,0.1,2.87,0.83,3.37c8.03,5.53,9.53,5.35,16.33-1.4c0.44-0.44,0.88-0.89,1.33-1.31
		c7.18-6.77,15.63-8.78,24.88-5.7c9.13,3.05,14.64,9.67,16.12,19.28c0.37,2.39,1.29,3.24,3.69,3.57
		c10.47,1.44,18.76,9.78,20.12,20.21c0.29,2.23,0.94,3.24,3.27,3.49c5.96,0.63,10.74,3.62,14.91,7.83
		c9.13,9.21,18.34,18.35,27.52,27.51c0.97,0.97,1.92,1.97,2.99,2.82c3.01,2.4,7.3,2.68,10.52,0.79c3.3-1.94,5.36-5.78,4.33-9.54
		c-0.62-2.27-2.06-4.56-3.73-6.26c-12.33-12.54-24.81-24.92-37.24-37.36c-0.88-0.88-1.81-1.74-2.54-2.73
		c-2.15-2.91-1.84-7.08,0.62-9.61c2.56-2.64,6.48-3.06,9.55-0.9c1.11,0.78,2.06,1.8,3.03,2.77c12.44,12.43,24.88,24.85,37.29,37.31
		c2.49,2.5,5.26,4.26,8.94,3.71c3.76-0.56,6.38-2.65,7.62-6.31c1.32-3.88,0.12-7.13-2.62-9.89c-10.2-10.25-20.45-20.47-30.67-30.7
		c-3.17-3.18-6.39-6.31-9.47-9.58c-2.17-2.31-2.92-5.43-1.21-7.91c1.39-2.01,4.04-4.05,6.32-4.28c2.14-0.22,5.01,1.42,6.72,3.1
		c12.84,12.55,25.46,25.33,38.18,38.01c4.77,4.76,10.12,5.2,14.2,1.28c4.1-3.94,3.85-9.4-0.74-14.23
		c-15.3-16.08-30.67-32.1-45.89-48.26c-1.89-2.01-3.38-2.09-5.76-1.14c-11.68,4.66-23.35,9.33-35.19,13.56
		c-4.01,1.43-8.53,2.38-12.73,2.13c-11.62-0.71-20.83-8.46-23.78-19.04c-3.05-10.95,0.87-22,10.35-29.09
		C886.86,487.67,890.98,484.67,895.42,481.39z M809.32,470.72c-23.97-12.45-47.65-24.75-71.51-37.14c0,39.29,0,78,0,116.72
		c16.31,5.17,32.42,10.27,48.88,15.48C794.26,534.02,801.74,502.58,809.32,470.72z M1019.16,470.74
		c7.59,31.88,15.08,63.31,22.61,94.96c1.68-0.48,2.99-0.83,4.27-1.24c13.76-4.36,27.48-8.82,41.28-13.02
		c2.72-0.83,3.65-1.88,3.64-4.81c-0.11-36.52-0.07-73.03-0.08-109.55c0-1.03-0.13-2.06-0.23-3.47
		C1066.63,446.1,1043.02,458.35,1019.16,470.74z M1009.49,565.41c4.03-1.98,7.74-4.01,11.62-5.65c2.63-1.11,3.38-2.28,2.64-5.3
		c-4.77-19.34-9.3-38.73-13.81-58.13c-0.57-2.43-1.54-3.69-4.18-4.31c-21.07-5-42.1-10.17-63.13-15.33
		c-6.33-1.55-12.7-1.42-18.04,2.26c-11.69,8.06-23.08,16.56-34.39,25.14c-3.67,2.79-4.54,7.11-3.3,11.54
		c1.24,4.43,4.22,7.54,8.84,8.06c2.71,0.3,5.74-0.15,8.31-1.11c13.65-5.07,27.19-10.41,40.78-15.65c5.59-2.15,7.47-1.73,11.58,2.6
		c11.51,12.11,23.01,24.23,34.51,36.34C997.1,552.36,1003.27,558.86,1009.49,565.41z M897.81,620.96c-0.79-4.23-2.59-7.06-6.02-8.69
		c-3.61-1.72-7.15-1.18-10.06,1.5c-3.93,3.63-7.71,7.42-11.4,11.29c-4.01,4.2-4.08,9.59-0.39,13.37c3.73,3.82,9.38,3.77,13.66-0.3
		c3.61-3.43,7.23-6.87,10.5-10.6C895.73,625.69,896.6,623.17,897.81,620.96z M901.43,665.18c1.09-0.5,3.32-0.98,4.77-2.31
		c4.41-4.02,8.7-8.21,12.67-12.65c3.31-3.7,2.72-9.12-0.8-12.48c-3.42-3.26-8.63-3.66-12.22-0.41c-4.42,4-8.63,8.27-12.66,12.67
		c-2.56,2.81-2.84,6.33-1.15,9.78C893.71,663.21,896.65,664.86,901.43,665.18z M819.11,584.06c0.76,4.23,2.52,7.07,5.98,8.69
		c3.6,1.68,7.14,1.24,10.05-1.46c3.92-3.63,7.7-7.42,11.4-11.28c4.01-4.19,4.1-9.59,0.43-13.35c-3.73-3.83-9.43-3.79-13.66,0.25
		c-3.6,3.44-7.22,6.87-10.5,10.6C821.19,579.34,820.32,581.85,819.11,584.06z M873.95,597.27c-0.69-4.16-2.36-7.06-5.83-8.7
		c-3.74-1.76-7.34-1.28-10.35,1.56c-3.8,3.58-7.48,7.28-11.11,11.04c-4.08,4.22-4.15,9.9-0.33,13.63c3.71,3.62,9.29,3.53,13.38-0.37
		c3.68-3.52,7.38-7.05,10.76-10.86C872.02,601.82,872.81,599.39,873.95,597.27z"/>
	<path d="M996.58,296.81c2.01,0.61,4.08,1.07,6.02,1.86c11.45,4.73,18.46,13.09,19.54,25.56c0.89,10.21,1.32,20.52-5.48,29.73
		c8.4,3,15.66,7.19,21.69,13.31c10.16,10.31,15.57,22.67,15.91,37.18c0.06,2.62,0.06,5.24,0.03,7.86c-0.06,6.15-2.72,8.77-9,8.78
		c-16.46,0.02-32.92,0.01-49.38,0.01c-4.48,0-8.97,0-13.42,0c-0.24,0.5-0.5,0.81-0.53,1.15c-0.79,8.44-2.48,9.99-10.95,9.99
		c-7.23,0-14.47,0.03-21.7-0.01c-5.38-0.03-8.84-3.02-8.85-7.51c0-4.57,3.34-7.41,8.85-7.44c5.71-0.03,11.41-0.01,17.07-0.01
		c2.51-21.75-17.99-46.67-44.66-44.88c0,3.04,0.06,6.13-0.01,9.21c-0.11,4.87-3.11,8.06-7.48,8.05c-4.37-0.01-7.35-3.19-7.46-8.07
		c-0.07-2.98-0.01-5.97-0.01-8.94c-23.98-2.99-47.3,21.03-44.65,44.62c5.66,0,11.36-0.03,17.07,0.01c5.49,0.03,8.84,2.89,8.83,7.46
		c-0.01,4.53-3.42,7.47-8.86,7.49c-7.61,0.04-15.21,0.02-22.82,0.01c-7.04-0.01-9.26-2.15-9.73-9.26c-0.03-0.48-0.15-0.95-0.3-1.88
		c-1.38,0-2.7,0-4.03,0c-19.08,0-38.16,0-57.24,0c-8.97,0-10.62-1.93-10.91-11.04c-0.47-14.38,3.04-27.4,12.24-38.65
		c6.63-8.1,14.97-13.81,25.44-17.36c-6.54-8.91-6.28-19.01-5.57-29.08c0.99-13.92,10.26-24.36,23.96-27.5
		c0.59-0.13,1.14-0.44,1.71-0.66c2.99,0,5.99,0,8.98,0c0.92,0.31,1.83,0.65,2.77,0.91c9.46,2.65,16.72,8.23,20.22,17.4
		c4.12,10.8,3.79,21.96,0.13,32.94c-0.69,2.06-1.92,3.93-2.64,5.37c5.41,3.14,10.55,6.15,15.72,9.1c0.67,0.38,1.69,0.79,2.3,0.56
		c2.97-1.13,5.86-2.47,7.87-3.34c-1.83-5.84-4.15-11.25-5.1-16.89c-0.86-5.09-0.42-10.45-0.21-15.68
		c0.34-8.65,4.11-15.77,10.3-21.72c4.94-4.74,11.09-6.96,17.51-8.64c2.99,0,5.99,0,8.98,0c0.82,0.26,1.62,0.57,2.45,0.76
		c14.33,3.21,24.67,15.27,25.39,29.98c0.54,11.08,1.11,22.24-6.57,31.73c3.27,1.36,6,2.57,8.79,3.61c0.68,0.25,1.71,0.2,2.32-0.15
		c5.35-3.04,10.65-6.18,16.2-9.43c-5.96-7.8-5.42-17.24-5.24-26.6c0.27-14.05,9.49-25.61,23.11-29.07c0.82-0.21,1.6-0.54,2.4-0.82
		C990.59,296.81,993.59,296.81,996.58,296.81z M828.85,366.82c-20.38-2.14-41.96,19.53-39.26,39.1c19.23,0,38.48,0,57.83,0
		c2.4-13.01,8.38-23.97,17.98-33.18c-6.71-4.31-13.67-6.3-21.67-6.2c0,2.72,0.2,5.08-0.04,7.41c-0.44,4.29-3.75,7.01-7.9,6.79
		c-3.95-0.21-6.74-3.11-6.93-7.36C828.77,371.18,828.85,368.97,828.85,366.82z M1039.08,405.98c1.12-22.49-19.97-41.01-39.42-39
		c0,1.93,0.05,3.91-0.01,5.88c-0.13,4.74-2.91,7.77-7.17,7.89c-4.41,0.12-7.53-2.95-7.75-7.77c-0.1-2.07-0.02-4.16-0.02-6.48
		c-8.03,0.04-15.01,1.89-20.94,5.85c3.84,5.43,8.01,10.3,10.99,15.82c2.96,5.5,4.72,11.64,7.13,17.81
		C1000.51,405.98,1019.66,405.98,1039.08,405.98z M931.7,334.25c-0.03,0-0.06,0-0.09,0c0-2.24,0.17-4.5-0.03-6.72
		c-0.79-8.94-8.4-15.76-17.4-15.73c-9,0.03-16.62,6.88-17.27,15.85c-0.31,4.21-0.3,8.48-0.08,12.7c0.49,9.52,7.92,16.55,17.28,16.62
		c9.5,0.07,16.99-7.04,17.57-16.74C931.8,338.24,931.7,336.24,931.7,334.25z M851.72,331.78c-0.1-0.01-0.2-0.02-0.31-0.03
		c0-1.87,0.08-3.73-0.01-5.6c-0.38-7.78-6.71-14.04-14.47-14.35c-7.84-0.32-14.76,5.22-15.6,13.03c-0.48,4.42-0.46,8.96-0.04,13.39
		c0.68,7.15,6.57,12.62,13.54,13.21c7.31,0.61,13.95-3.73,15.89-10.82C851.5,337.78,851.42,334.73,851.72,331.78z M976.72,331.36
		c0.11,0.01,0.23,0.02,0.34,0.04c0,1.87-0.07,3.73,0.01,5.6c0.34,7.83,6.61,14.12,14.35,14.46c7.91,0.34,14.85-5.11,15.7-12.88
		c0.5-4.54,0.47-9.21,0.02-13.75c-0.69-6.95-6.47-12.26-13.38-12.97c-7.01-0.72-13.82,3.51-15.86,10.35
		C977.03,325.1,977.09,328.3,976.72,331.36z"/>
	<path d="M914.41,432.2c-3.92,0.11-7.43-3.18-7.62-7.13c-0.21-4.16,3.1-7.68,7.28-7.77c4.06-0.08,7.43,3.04,7.62,7.06
		C921.89,428.47,918.53,432.09,914.41,432.2z"/>
</g>
<g>
</g>
<g>
</g>
<g>
</g>
<g>
</g>
<g>
</g>
<g>
</g>
<g>
</g>
<g>
</g>
<g>
</g>
<g>
</g>
<g>
</g>
<g>
</g>
<g>
</g>
<g>
</g>
<g>
</g>
</svg>
