<?xml version="1.0" encoding="utf-8"?>
<!-- Generator: Adobe Illustrator 24.3.0, SVG Export Plug-In . SVG Version: 6.00 Build 0)  -->
<svg version="1.1" id="Layer_1" xmlns="http://www.w3.org/2000/svg" xmlns:xlink="http://www.w3.org/1999/xlink" x="0px" y="0px"
	 viewBox="0 0 1920 1080" style="enable-background:new 0 0 1920 1080;" xml:space="preserve">
<g>
	<path d="M963.79,486.9c-0.52-0.8-1.55-1.09-2.45-0.77c-18.47,6.52-37,12.31-54.86,19.73c-17.26,7.17-26.04,21.33-27.11,40.09
		c-0.08,1.39,0.02,2.78-0.04,4.17c-0.22,5.16-3.5,8.64-8.18,8.72c-4.84,0.08-8.27-3.49-8.48-8.84
		c-1.07-27.55,15.78-52.36,41.72-61.46c17.41-6.1,34.8-12.3,52.26-18.24c4.3-1.46,6.02-3.69,6.22-8.41
		c0.31-7.48-1.35-13.47-6.15-19.68c-9.72-12.58-13.2-27.85-13.64-43.45c-0.38-13.69-0.93-27.72,1.55-41.06
		c4.71-25.39,29.29-43.42,54.61-42.24c27.19,1.27,49.58,20.44,52.58,46.83c2.26,19.87,2.31,39.96-3.29,59.55
		c-2.78,9.74-7.32,18.55-14.05,26.22c-0.97,1.11-1.38,2.85-1.7,4.37c-0.28,1.33-0.06,2.77-0.06,4.16
		c-0.02,12.71-0.99,10.76,10.77,15.03c15.92,5.77,31.97,11.17,47.84,17.03c26.2,9.68,41.71,32.44,41.43,60.32
		c-0.06,6.11-3.19,9.85-8.28,9.88c-5.09,0.03-8.31-3.71-8.39-9.77c-0.31-22.71-10.98-37.83-32.21-45.46
		c-15.93-5.73-31.9-11.32-47.85-17c-1.85-0.66-3.34-1.49-4.93,0.94c-15.93,24.24-51.48,23.99-67.36-0.62
		C963.8,486.9,963.8,486.9,963.79,486.9z M961.45,358.18c-1.7,4.26-1.19,8.67-1.22,13.12c-0.03,4.89-0.08,9.78-0.06,14.67
		c0.03,7.17,0.2,14.35,0.75,21.5c0.98,12.72,6.41,24,15.86,33.1c1.5,1.44,2.11,4.1,2.52,6.31c0.42,2.28,0.15,4.71,0.09,7.07
		c-0.18,6.89,0.92,13.9-2.33,20.5c-0.43,0.87,0.36,2.65,1.04,3.73c9.2,14.47,30.9,14.09,39.72-0.7c0.55-0.93,0.84-2.33,0.6-3.37
		c-0.75-3.34-1.68-6.63-2.53-9.74c-0.29-1.07-1.35-1.73-2.44-1.53c-4.95,0.88-10.21,1.98-15.52,2.47c-4.43,0.41-7.83-2.89-8.43-7.02
		c-0.55-3.73,1.81-7.66,5.44-8.84c1.3-0.43,2.71-0.62,4.09-0.72c9.41-0.68,16.95-5.05,22.95-12.04
		c13.1-15.25,14.3-33.54,14.08-52.62c-0.02-1.37-1.3-2.37-2.63-2.04c-11.97,2.96-23.64,2.93-35.36,0.54
		c-11.83-2.41-22.97-6.45-32.42-14.26c-2.9-2.4-5.03-5.22-3.2-9.35c1.94-5.96,7.5-7.71,12.79-4.24c4.04,2.65,8.03,5.59,12.45,7.4
		c14.38,5.87,29.17,7.66,44.32,2.92c2.11-0.66,3.66-1.26,2.9-4.3c-3.84-15.28-17.83-27.18-33.78-28.42c-2.7-0.21-5.41-0.15-8.1,0.18
		c-2.62,0.32-5.21,0.91-7.72,1.75c-2.46,0.82-4.84,1.89-7.08,3.19c-2.22,1.29-4.32,2.8-6.23,4.51c-1.91,1.71-3.65,3.63-5.16,5.7
		c-2.01,2.77-3.52,5.8-4.78,8.98C961.88,357.14,961.66,357.66,961.45,358.18z"/>
	<path d="M889.37,450.76c-1.57,0.24-2.65,0.43-3.73,0.57c-4.38,0.56-8.36-2.19-9.34-6.44c-0.92-3.98,1.48-8.05,5.5-9.61
		c3.33-1.3,6.92-2.31,9.81-4.3c9.15-6.32,11.86-15.56,10.97-26.19c-4.99-0.93-10.16-1.08-14.64-2.91c-7.38-3-14.49-6.79-21.38-10.81
		c-4.36-2.55-4.98-7.7-2.3-11.64c2.61-3.84,7.61-4.81,11.77-1.79c6.5,4.72,13.36,8.45,21.43,9.57c1.47,0.2,2.97,0.24,4.49,0.36
		c-0.44-10.99-10.45-21.02-21.34-21.73c-16.15-1.05-27.76,9.74-27.9,25.98c-0.05,5.97,0.03,11.95-0.02,17.93
		c-0.06,7.84,2.81,14.43,8.73,19.47c3.37,2.87,4.82,6.12,4.68,10.51c-0.23,6.94-0.11,13.89-0.05,20.84c0.04,4.5-2.23,7.08-6.28,8.75
		c-10,4.11-20.14,8.01-29.82,12.8c-11.11,5.5-16.79,15.04-17.23,27.47c-0.21,5.83,0.08,11.67-0.09,17.51
		c-0.11,3.6,1.46,5.57,4.68,6.96c7.89,3.42,15.71,7.01,23.49,10.68c3.92,1.85,5.83,5.45,5.06,9.1c-0.8,3.79-3.2,6.25-7.03,6.69
		c-1.81,0.21-3.88-0.29-5.59-1.04c-8.13-3.56-16.23-7.22-24.25-11.04c-8.6-4.1-13.11-11.1-12.91-20.6
		c0.21-9.96-0.11-20.13,1.82-29.81c2.9-14.56,12.16-25.01,25.67-31.34c7.53-3.53,15.19-6.82,22.87-10.02
		c2.31-0.96,3.3-2.26,2.93-4.69c-0.08-0.54-0.07-1.12,0-1.66c0.78-5.94-1.19-10.59-4.96-15.44c-3.53-4.54-6.68-10.48-7.17-16.06
		c-1.08-12.22-1.67-24.78-0.08-36.88c2.51-19.08,20.97-33.42,40.5-33.45c19.52-0.03,38.02,14.28,40.59,33.36
		c1.61,11.96,0.77,24.33,0.25,36.48c-0.31,7.06-3.85,13.41-8.66,18.54c-3.04,3.24-4.02,6.49-3.87,10.75
		c0.29,7.81,0.09,7.8,7.36,10.89c4.09,1.73,8.18,3.46,12.22,5.29c4.69,2.12,6.59,6.56,4.79,10.93c-1.8,4.37-6.3,6.34-11.03,4.45
		c-8.37-3.34-16.69-6.82-24.96-10.41c-3.14-1.36-4.99-3.89-4.98-7.51C889.38,457.95,889.37,454.62,889.37,450.76z"/>
	<path d="M1129.49,450.74c-1.43,0.2-2.24,0.3-3.06,0.42c-4.99,0.79-9.07-1.81-10.05-6.42c-0.92-4.3,1.79-8.02,6.46-9.74
		c3.46-1.28,6.99-2.77,9.96-4.9c6.77-4.87,9.75-11.95,9.98-20.15c0.18-6.53,0.12-13.07,0.02-19.6
		c-0.22-14.01-11.16-24.88-24.96-24.9c-13.76-0.02-24.8,10.89-25.02,24.84c-0.1,6.53,0,13.06-0.03,19.6
		c-0.03,7.84,2.93,14.39,8.85,19.42c3.25,2.76,4.67,5.9,4.55,10.15c-0.21,6.94-0.03,13.9-0.06,20.85c-0.02,4.94-1.8,7.18-6.41,9.03
		c-7.47,2.98-14.84,6.23-22.32,9.2c-3.88,1.54-7.1,0.12-9.46-3.14c-2.16-2.98-1.94-7.31,0.61-10.01c1.1-1.16,2.63-2.02,4.11-2.7
		c4.67-2.13,9.42-4.09,14.12-6.16c0.86-0.38,1.89-0.79,2.39-1.5c1.31-1.86-0.02-14.16-1.6-15.92c-8-8.88-11.9-19.29-11.42-31.24
		c0.38-9.27-0.3-18.8,1.65-27.74c4.51-20.71,23.86-33.32,45.45-30.97c19.75,2.15,35.77,19.67,36.15,40.02
		c0.18,9.7-0.01,19.44-0.75,29.1c-0.55,7.22-4.02,13.64-8.93,18.88c-2.83,3.02-3.75,6.03-3.62,10.01c0.26,8.15,0.19,7.92,7.4,11.36
		c9.61,4.58,19.71,8.59,28.34,14.64c11.65,8.17,16.82,20.74,17.59,34.87c0.38,6.93,0.27,13.9,0.05,20.84
		c-0.27,8.62-4.3,15.23-12.03,19.07c-8.33,4.13-16.84,7.89-25.35,11.63c-5.28,2.32-9.88,0.62-11.86-4.02
		c-1.89-4.43,0.03-8.8,5.09-11.15c7.43-3.44,14.87-6.86,22.4-10.08c3.64-1.56,5.43-3.8,5.2-7.94c-0.4-7.34,0.23-14.79-0.79-22.03
		c-1.49-10.61-7.75-18.36-17.51-22.8c-9.71-4.42-19.65-8.34-29.48-12.52c-3.48-1.48-5.64-3.96-5.64-7.94
		C1129.48,457.82,1129.49,454.5,1129.49,450.74z"/>
	<path d="M1035.91,715.33c-0.84-0.31-2.58-0.79-4.17-1.57c-10.22-5-20.45-9.97-30.56-15.17c-2.52-1.3-4.45-1.17-6.9,0.07
		c-10.01,5.11-20.15,9.98-30.2,15.01c-3.44,1.73-6.83,2.57-10.17,0.03c-3.39-2.58-3.75-6.04-3.08-10.09
		c1.84-11.24,3.47-22.51,4.92-33.8c0.21-1.61-0.51-3.87-1.63-5.05c-7.26-7.67-14.76-15.11-22.16-22.64
		c-1.07-1.09-2.13-2.2-3.08-3.38c-4.85-6.04-2.27-12.97,5.32-14.27c11.49-1.97,23.01-3.8,34.46-5.99c1.83-0.35,4.02-1.91,4.91-3.53
		c5.5-9.97,10.79-20.05,15.91-30.22c1.82-3.61,4.31-5.8,8.33-5.79c4.03,0.01,6.49,2.27,8.29,5.86
		c5.06,10.04,10.47,19.91,15.54,29.94c1.28,2.54,2.93,3.55,5.69,3.98c11.38,1.76,22.73,3.73,34.07,5.76
		c7.6,1.36,10.37,8.63,5.15,14.28c-8,8.68-16.37,17.03-24.74,25.35c-2.02,2.01-2.47,3.89-2.03,6.62
		c1.86,11.51,3.52,23.06,5.17,34.61C1045.71,710.72,1041.97,715.23,1035.91,715.33z M969.33,692.44
		c7.79-3.85,14.98-7.13,21.89-10.91c4.65-2.54,8.75-2.38,13.34,0.11c6.89,3.73,14.02,7,21.61,10.75c-1.36-9.24-2.9-17.71-3.69-26.25
		c-0.25-2.69,0.94-5.95,2.49-8.27c2.05-3.06,5.13-5.43,7.72-8.14c3.46-3.62,6.88-7.29,10.78-11.42c-6.18-1.08-11.47-2.03-16.77-2.94
		c-16.82-2.88-13.15-0.87-20.95-15.23c-2.6-4.8-5.09-9.66-8-15.21c-3.86,7.33-7.63,13.64-10.57,20.31
		c-2.6,5.91-6.61,8.66-12.94,9.35c-7.23,0.79-14.37,2.37-22.36,3.75c6.33,6.56,12.02,12.56,17.84,18.44
		c2.85,2.88,4.06,5.96,3.33,10.12C971.64,675.1,970.63,683.35,969.33,692.44z"/>
	<path d="M899.84,613.44c-5.95-1.05-11.88-2.29-17.86-3.08c-4.3-0.56-7.12-2.63-9.01-6.41c-2.71-5.41-5.55-10.75-8.68-16.79
		c-3.25,6.16-6.21,11.46-8.86,16.9c-1.82,3.74-4.62,5.65-8.66,6.27c-6.01,0.91-11.98,2.04-18.81,3.22
		c4.79,4.87,8.98,9.24,13.31,13.47c2.91,2.84,4.12,5.98,3.37,10.11c-1.1,6.13-1.81,12.32-2.75,18.98c6-2.95,11.63-5.59,17.13-8.48
		c3.51-1.84,6.76-1.87,10.3-0.09c10.28,5.19,20.65,10.19,30.94,15.36c4.77,2.4,6.47,7.11,4.39,11.46
		c-2.02,4.22-6.91,5.78-11.79,3.44c-8.26-3.96-16.48-8.03-24.61-12.25c-2.68-1.39-4.83-1.67-7.67-0.15
		c-7.83,4.18-15.89,7.93-23.82,11.92c-3.43,1.73-6.91,2.52-10.23,0.17c-3.46-2.45-3.9-5.97-3.22-10.03
		c1.51-9.03,2.82-18.11,3.93-27.2c0.2-1.62-0.48-3.85-1.57-5.04c-6.42-6.92-13.04-13.66-19.7-20.35c-2.67-2.68-4.14-5.65-3-9.36
		c1.2-3.94,4.37-5.45,8.19-6.06c8.9-1.43,17.78-3.02,26.69-4.38c2.87-0.44,4.55-1.73,5.85-4.38c3.92-7.97,8.19-15.77,12.25-23.67
		c1.75-3.41,4.01-6,8.2-6.06c4.21-0.06,6.51,2.44,8.29,5.88c4.26,8.26,8.5,16.54,13,24.67c0.78,1.42,2.66,2.79,4.25,3.1
		c9.12,1.79,18.29,3.31,27.46,4.81c3.82,0.62,6.9,2.09,8.25,5.99c1.38,3.98-0.41,6.93-3.1,9.67c-7.87,8.04-15.67,16.14-23.52,24.2
		c-3.95,4.05-9,4.43-12.58,1.01c-3.68-3.51-3.63-8.45,0.45-12.5c4.52-4.48,9.29-8.72,13.95-13.06
		C900.35,614.3,900.1,613.87,899.84,613.44z"/>
	<path d="M1154.77,656.13c-0.93-6.25-1.52-11.48-2.53-16.63c-1.05-5.34-0.14-9.69,4.14-13.5c4.11-3.66,7.7-7.92,12.05-12.48
		c-6.46-1.14-12.24-2.37-18.09-3.14c-4.41-0.58-7.35-2.51-9.28-6.6c-2.6-5.51-5.63-10.82-8.67-16.58
		c-3.07,5.81-6.11,11.24-8.82,16.83c-1.82,3.74-4.56,5.68-8.61,6.29c-6,0.9-11.96,2.04-18.64,3.2c5.12,5.34,9.77,10.07,14.27,14.94
		c2.9,3.14,3.17,7.62,0.92,10.72c-2.21,3.04-6.64,4.32-10.05,2.68c-1.33-0.64-2.52-1.71-3.58-2.78
		c-7.84-7.88-15.61-15.84-23.44-23.72c-2.84-2.86-4.5-6.1-3.17-10.13c1.3-3.93,4.59-5.21,8.39-5.82c9.04-1.46,18.09-2.92,27.07-4.7
		c1.7-0.34,3.69-1.83,4.54-3.36c4.27-7.63,8.25-15.43,12.25-23.21c1.91-3.71,3.98-7.14,8.78-7.2c5.03-0.06,7.12,3.54,9.08,7.38
		c3.86,7.54,7.94,14.97,11.69,22.56c1.24,2.52,2.85,3.65,5.58,4.07c8.92,1.36,17.79,3.02,26.69,4.47c3.64,0.59,6.76,1.89,8.12,5.59
		c1.41,3.84,0.02,7.11-2.68,9.87c-6.51,6.66-13.17,13.17-19.54,19.96c-1.18,1.26-1.98,3.61-1.78,5.31
		c1.11,9.23,2.53,18.43,3.96,27.62c0.6,3.87,0.01,7.29-3.32,9.65c-3.18,2.26-6.51,1.72-9.84,0.04c-8.43-4.25-16.86-8.5-25.39-12.53
		c-1.34-0.63-3.5-0.63-4.85,0c-8.54,4.01-16.95,8.31-25.43,12.46c-5.52,2.7-10.27,1.55-12.6-2.96c-2.33-4.51-0.41-9.07,5.08-11.82
		c10.06-5.03,20.18-9.93,30.2-15.05c3.55-1.82,6.8-1.8,10.3,0.02C1142.97,650.4,1148.47,653.02,1154.77,656.13z"/>
</g>
<g>
</g>
<g>
</g>
<g>
</g>
<g>
</g>
<g>
</g>
<g>
</g>
<g>
</g>
<g>
</g>
<g>
</g>
<g>
</g>
<g>
</g>
<g>
</g>
<g>
</g>
<g>
</g>
<g>
</g>
</svg>
