<?xml version="1.0" encoding="utf-8"?>
<!-- Generator: Adobe Illustrator 24.3.0, SVG Export Plug-In . SVG Version: 6.00 Build 0)  -->
<svg version="1.1" id="Layer_1" xmlns="http://www.w3.org/2000/svg" xmlns:xlink="http://www.w3.org/1999/xlink" x="0px" y="0px"
	 viewBox="0 0 1920 1080" style="enable-background:new 0 0 1920 1080;" xml:space="preserve">
<g>
	<path d="M869.95,663.49c-1.85,2.18-3.82,4.27-5.5,6.57c-0.63,0.86-0.97,2.27-0.79,3.32c0.76,4.58-0.57,8.38-3.83,11.55
		c-12.6,12.27-25.18,24.57-37.86,36.76c-5.79,5.57-12.92,5.37-18.57-0.34c-4.39-4.43-8.73-8.91-13.02-13.45
		c-5.38-5.7-5.33-12.78,0.29-18.28c12.57-12.31,25.26-24.49,37.86-36.77c3.31-3.22,7.16-4.24,11.66-3.62
		c1.16,0.16,2.85-0.07,3.59-0.82c4.28-4.36,8.35-8.92,12.77-13.71c-1.72-3.95-4.28-8.68-5.89-13.71
		c-9.57-29.88-3.34-56.29,18.13-79.07c1.88-1.99,2.67-3.84,2.66-6.54c-0.07-55.15-0.05-110.3-0.05-165.46
		c0-11.3,4.31-15.62,15.56-15.62c64.88,0,129.75,0.04,194.63-0.07c5.54-0.01,9.74,1.75,13.58,5.69
		c10.97,11.26,22.12,22.34,33.33,33.36c3.54,3.48,5.11,7.4,5.1,12.33c-0.06,90.09-0.04,180.18-0.04,270.27
		c0,9.88-4.8,14.66-14.73,14.66c-77.6,0.01-155.2,0.01-232.8,0c-9.99,0-14.59-4.63-14.63-14.66c-0.01-3.83,0-7.66,0-11.5
		C870.92,664.1,870.44,663.79,869.95,663.49z M883.6,530.2c17.01-9.7,34.85-12.89,53.66-9.29c19.03,3.65,34.47,13.43,46.26,28.77
		c19.72,25.66,20.88,61.17,2.97,88.27c-8.93,13.52-20.95,23.41-36.06,29.17c-22.89,8.73-45.16,6.52-66.83-5.41
		c0,5.87,0,11.17,0,16.63c79.35,0,158.48,0,237.67,0c0-90.62,0-180.98,0-271.54c-9.92,0-19.52,0.01-29.12,0
		c-7.81-0.01-11.06-3.28-11.1-11.18c-0.03-7.74-0.01-15.47-0.01-23.21c0-1.95,0-3.91,0-5.9c-66.09,0-131.66,0-197.45,0
		C883.6,421.02,883.6,475.33,883.6,530.2z M922.82,531.52c-35.6-0.04-64.58,28.86-64.57,64.39c0.01,35.34,28.88,64.34,64.2,64.5
		c35.51,0.17,64.56-28.74,64.65-64.33C987.2,560.39,958.49,531.56,922.82,531.52z M798.13,699.07c5.32,4.93,10.25,9.49,15.33,14.2
		c12.52-12.16,25.46-24.72,38.66-37.53c-5.27-4.82-10.27-9.39-15.44-14.11C824.3,673.66,811.44,686.15,798.13,699.07z
		 M1093.28,375.4c0,6.77,0,12.92,0,19.06c6.45,0,12.65,0,19.46,0c-6.3-6.28-12.11-12.08-17.93-17.87
		C1094.48,376.27,1094.08,376.02,1093.28,375.4z M864.39,645.3c-4.18,4.54-8.17,8.87-12.2,13.24c0.77,0.87,1.92,2.16,3.25,3.65
		c4.26-4.55,8.22-8.79,12.36-13.21C866.87,647.99,865.72,646.75,864.39,645.3z"/>
	<path d="M1053.6,428.52c-0.56-0.03-1.56,0.2-2.28-0.16c-4.51-2.26-6.68,0.64-9.02,3.71c-3.33,4.36-6.84,8.59-10.37,12.78
		c-1.19,1.41-1.37,2.46-0.51,4.24c4.26,8.77,2.33,18.37-4.69,24.52c-6.78,5.94-16.73,6.69-24.33,1.84
		c-7.97-5.09-11.09-14.3-8.35-23.93c0.34-1.19-0.16-3.19-1.03-4.04c-6.22-6.13-12.67-12.02-18.94-18.1
		c-1.4-1.36-2.49-1.44-4.21-0.69c-4.5,1.97-9.14,1.93-13.91,0.73c-1.19-0.3-3.17,0.26-3.98,1.16c-7.4,8.11-14.68,16.33-21.83,24.66
		c-0.78,0.91-1.05,2.95-0.6,4.1c3.17,8.08,2.27,15.55-3.5,21.99c-5.65,6.3-12.94,8.41-21.08,5.87c-8.26-2.59-13-8.51-14.28-17.06
		c-2.1-14.04,11.72-25.83,25.8-21.88c2.31,0.65,3.55,0.33,5.07-1.43c6.94-8.02,13.98-15.95,21.07-23.84
		c1.38-1.54,1.88-2.71,0.94-4.88c-3.78-8.72-1.36-18.31,5.71-24.01c7-5.63,16.63-6.09,24.07-1.14c7.65,5.09,10.94,14.28,8.04,23.33
		c-0.69,2.15-0.36,3.36,1.23,4.82c6.25,5.74,12.41,11.58,18.51,17.46c1.41,1.36,2.5,1.44,4.5,1.04c4.18-0.83,8.54-1.11,12.8-0.92
		c1.98,0.09,3.19,0,4.43-1.56c4.1-5.19,8.24-10.34,12.51-15.39c1.32-1.56,1.42-2.63,0.5-4.55c-3.74-7.81-2.95-15.38,2.62-22.03
		c5.57-6.65,12.92-8.83,21.23-6.44c8.52,2.45,13.3,8.52,14.58,17.19C1076.03,417.68,1066.11,428.58,1053.6,428.52z M1053.94,416.53
		c4.61,0.04,8.38-3.57,8.51-8.14c0.13-4.67-3.74-8.54-8.5-8.51c-4.63,0.04-8.29,3.7-8.3,8.31
		C1045.65,412.77,1049.35,416.49,1053.94,416.53z M910.75,476.2c4.44,0.11,8.4-3.67,8.57-8.17c0.17-4.45-3.53-8.43-8.06-8.65
		c-4.58-0.23-8.73,3.71-8.77,8.33C902.44,472.15,906.28,476.09,910.75,476.2z M962.26,418.27c4.6-0.09,8.25-3.83,8.21-8.41
		c-0.04-4.69-4.04-8.52-8.71-8.32c-4.56,0.2-8.08,4.01-7.96,8.64C953.91,414.83,957.61,418.36,962.26,418.27z M1013.28,449.97
		c-4.62,0.03-8.31,3.69-8.33,8.26c-0.02,4.69,3.91,8.53,8.61,8.4c4.57-0.12,8.16-3.9,8.1-8.51
		C1021.59,453.47,1017.97,449.94,1013.28,449.97z"/>
	<path d="M1051.76,539.28c-13.95,0-27.91,0.06-41.86-0.07c-1.86-0.02-4.34-0.47-5.39-1.7c-1.24-1.46-2.15-4.33-1.53-5.94
		c0.69-1.79,3.1-3.59,5.07-4.05c2.96-0.68,6.19-0.21,9.3-0.21c24.79,0,49.58,0,74.37,0c1,0,1.99-0.03,2.99,0.01
		c4.08,0.15,6.71,2.51,6.72,5.99c0,3.51-2.61,5.93-6.7,5.96c-10.09,0.06-20.18,0.02-30.27,0.02
		C1060.23,539.28,1056,539.28,1051.76,539.28z"/>
	<path d="M1052.01,496.44c13.58,0,27.15,0,40.73,0c1.24,0,2.51-0.07,3.73,0.13c2.96,0.49,4.63,2.42,4.92,5.31
		c0.27,2.77-1.06,4.92-3.65,5.88c-1.46,0.54-3.16,0.63-4.75,0.63c-27.4,0.04-54.81,0.03-82.21,0.02c-0.99,0-2.01,0.05-2.98-0.11
		c-3.36-0.54-5.38-2.95-5.27-6.18c0.11-3.19,2.33-5.47,5.77-5.62c3.23-0.15,6.48-0.06,9.71-0.06
		C1029.34,496.44,1040.67,496.44,1052.01,496.44z"/>
	<path d="M1052.21,589.29c14.2,0,28.4-0.03,42.6,0.02c3.95,0.01,6.46,2.24,6.63,5.6c0.18,3.41-2.48,6.04-6.42,6.33
		c-0.87,0.06-1.74,0.03-2.61,0.03c-8.47,0-16.94,0-25.41,0c-18.56,0-37.12,0.01-55.68-0.02c-1.6,0-3.28-0.04-4.79-0.5
		c-3.04-0.93-4.32-3.26-3.94-6.36c0.37-2.96,2.19-4.66,5.15-5.02c1.11-0.14,2.24-0.08,3.36-0.08
		C1024.8,589.29,1038.5,589.29,1052.21,589.29z"/>
	<path d="M1051.99,570.2c-13.6,0-27.2,0-40.8-0.01c-1.25,0-2.51,0.05-3.73-0.16c-2.94-0.49-4.67-2.29-4.9-5.27
		c-0.23-3.13,1.19-5.34,4.27-6.15c1.42-0.37,2.96-0.38,4.45-0.38c27.07-0.02,54.15-0.02,81.22-0.02c0.5,0,1-0.01,1.5,0
		c4.66,0.12,7.48,2.42,7.45,6.07c-0.03,3.67-2.77,5.88-7.54,5.89C1079.94,570.22,1065.96,570.2,1051.99,570.2z"/>
	<path d="M866.25,595.74c0.08-31.28,25.46-56.52,56.74-56.43c31.09,0.09,56.54,25.79,56.36,56.93
		c-0.18,31.16-25.73,56.31-57.06,56.16C891.21,652.26,866.17,626.94,866.25,595.74z M878.22,596.05
		c0.05,24.58,19.94,44.4,44.56,44.38c24.5-0.02,44.58-20.05,44.59-44.48c0.01-24.56-20.27-44.74-44.87-44.65
		C898.03,551.39,878.18,571.46,878.22,596.05z"/>
</g>
<g>
</g>
<g>
</g>
<g>
</g>
<g>
</g>
<g>
</g>
<g>
</g>
<g>
</g>
<g>
</g>
<g>
</g>
<g>
</g>
<g>
</g>
<g>
</g>
<g>
</g>
<g>
</g>
<g>
</g>
</svg>
