<?xml version="1.0" encoding="utf-8"?>
<!-- Generator: Adobe Illustrator 24.3.0, SVG Export Plug-In . SVG Version: 6.00 Build 0)  -->
<svg version="1.1" id="Layer_1" xmlns="http://www.w3.org/2000/svg" xmlns:xlink="http://www.w3.org/1999/xlink" x="0px" y="0px"
	 viewBox="0 0 1920 1080" style="enable-background:new 0 0 1920 1080;" xml:space="preserve">
<g>
	<path d="M772.89,731.61c-5.04-3.62-5.31-6.49-0.91-10.89c19.39-19.42,38.81-38.82,58.22-58.22c0.7-0.7,1.39-1.47,2.22-1.99
		c2.38-1.5,4.81-1.39,6.87,0.53c2.06,1.92,2.42,4.35,0.95,6.79c-0.69,1.15-1.71,2.13-2.68,3.09c-19.05,19.06-38.1,38.11-57.17,57.16
		c-1.22,1.21-2.5,2.36-3.76,3.53C775.39,731.61,774.14,731.61,772.89,731.61z"/>
	<path d="M921.44,481.02c5.18,1.95,8.81,4.71,9.41,10.15c0.46,4.22-1.45,7.38-4.34,10.26c-17.5,17.43-34.94,34.93-52.44,52.36
		c-0.95,0.95-2.31,1.48-3.34,2.12c5.62,5.63,10.37,10.38,15.29,15.3c0.43-0.47,1.04-1.04,1.54-1.69
		c7.44-9.64,16.55-17.26,27.47-22.65c13.85-6.84,27.71-13.65,41.65-20.32c8.36-4,17.25,0.25,18.61,9.05
		c0.41,2.65-0.18,5.82-1.34,8.27c-6.75,14.31-13.7,28.52-20.78,42.67c-5.63,11.23-13.8,20.39-23.63,27.61
		c4.92,4.91,9.74,9.71,14.72,14.68c0.61-0.58,1.6-1.49,2.55-2.44c17.21-17.2,34.4-34.4,51.61-51.6c7.75-7.75,15.05-6.88,20.64,2.52
		c0.31-0.09,0.72-0.1,0.98-0.3c21.01-16.66,42.54-32.7,62.85-50.18c24.56-21.13,38.91-48.57,44.83-80.4
		c0.23-1.22,0.44-2.45,0.72-3.67c0.82-3.67,3.49-5.72,6.59-5.08c3.22,0.66,5.01,3.51,4.39,7.11c-2.38,13.81-6.16,27.19-11.93,39.99
		c-11.72,26.02-30.06,46.44-52.68,63.49c-16.73,12.61-32.93,25.91-49.47,38.77c-2.06,1.6-2.45,2.89-1.54,5.24
		c4.82,12.47,7.54,25.26,5.98,38.76c-1.24,10.69-4.23,20.81-9.91,29.91c-11.29,18.08-22.83,36.01-34.37,53.92
		c-3.84,5.96-10.97,6.68-16.05,1.82c-3.34-3.19-6.58-6.47-9.8-9.78c-2.67-2.75-2.89-5.98-0.7-8.32c2.29-2.44,5.76-2.34,8.58,0.46
		c2.91,2.88,5.65,5.93,8.76,9.21c1.02-1.43,1.68-2.27,2.26-3.17c9.88-15.43,19.73-30.88,29.62-46.31
		c11.67-18.2,13.99-37.49,6.83-57.91c-2.25-6.43-4.41-12.9-6.47-18.96c-26.28,26.28-52.52,52.52-79.1,79.09
		c5.35,5.33,11.26,11.19,17.16,17.07c1.24,1.23,2.55,2.41,3.64,3.77c1.99,2.49,1.96,5.16-0.26,7.43c-2.22,2.27-5.11,2.6-7.39,0.4
		c-7.89-7.63-15.73-15.32-23.25-23.31c-3.49-3.72-2.72-9.63,1.15-13.56c4.98-5.06,10.09-9.99,14.83-14.67
		c-5.49-5.49-10.73-10.73-16.25-16.24c-10.17,7.48-20.9,15.37-31.64,23.26c-4.62,3.4-9.24,6.8-13.87,10.18
		c-6.23,4.54-10.88,4.24-16.27-1.08c-3.73-3.68-7.44-7.38-11.11-11.12c-4.98-5.06-5.37-9.95-1.17-15.69
		c10.61-14.49,21.27-28.94,31.9-43.41c0.74-1,1.45-2.02,1.99-2.78c-5.38-5.38-10.64-10.65-16.14-16.15
		c-4.49,4.53-9.19,9.32-13.95,14.05c-5.76,5.73-11.16,5.77-16.86,0.09c-15.81-15.77-31.6-31.56-47.37-47.37
		c-5.82-5.84-5.05-12.79,1.86-17.26c4.92-3.18,9.85-6.35,14.8-9.48c3.77-2.38,6.95-2.03,8.85,0.87c2,3.05,0.95,6.09-3.02,8.65
		c-4.7,3.04-9.42,6.06-13.79,8.87c15.81,15.81,31.56,31.55,46.93,46.92c25.78-25.77,52.1-52.08,78.98-78.95
		c-11.75-3.19-23.54-7.42-35.69-9.41c-14.2-2.33-27.7,1.63-39.96,9.28c-4.44,2.77-8.82,5.64-13.26,8.42
		c-3.7,2.31-7.01,1.86-8.81-1.1c-1.75-2.88-0.81-5.93,2.68-8.18c10.15-6.54,20.03-13.58,31.85-17.03
		c16.78-4.9,33.29-3.89,49.49,2.35c3.33,1.28,5.15,0.8,7.36-2.05c14.52-18.72,29.25-37.29,43.92-55.9
		c24.59-31.2,56.51-50.21,95.55-57.35c21.08-3.86,42.14-7.8,63.24-11.6c20.72-3.73,38.87,14.53,35.11,35.27
		c-2.09,11.52-4.27,23.03-6.43,34.54c-0.77,4.08-3.24,6.19-6.5,5.67c-3.5-0.56-5.27-3.53-4.5-7.66c2.07-11.15,4.19-22.28,6.25-33.43
		c2.71-14.68-8.57-25.91-23.25-23.17c-23.51,4.38-47.17,8.12-70.51,13.3c-31.74,7.04-57.9,23.76-78.31,49.1
		c-15.02,18.65-29.69,37.57-44.51,56.38C922.41,479.43,922.06,480.07,921.44,481.02z M866.15,646.77c0.38-0.24,0.9-0.55,1.39-0.91
		c18.76-13.81,37.55-27.59,56.27-41.45c8.87-6.57,15.6-14.97,20.43-24.89c6.32-12.98,12.66-25.95,18.92-38.96
		c0.54-1.12,0.57-2.49,0.83-3.74c-1.35,0.17-2.87,0-4.03,0.56c-13.12,6.3-26.2,12.71-39.27,19.11
		c-10.27,5.03-18.72,12.21-25.48,21.44c-9.78,13.37-19.62,26.71-29.44,40.05c-4.05,5.51-8.1,11.02-11.95,16.25
		C858.03,638.52,862.04,642.59,866.15,646.77z"/>
	<path d="M998.21,417.18c-0.78-4.77,1.72-7.87,6.37-9.63c1.86-0.71,3.68-1.51,5.54-2.22c3.55-1.36,6.82-0.73,9.1,2.25
		c6.47,8.45,19.3,8.55,25.87-0.09c2.17-2.85,5.34-3.51,8.77-2.23c1.98,0.74,3.97,1.48,5.9,2.35c5.32,2.38,6.5,4.33,6.27,10.1
		c-0.39,9.66,6.71,17.18,16.42,16.72c5.64-0.27,9.03,1.85,10.81,7.04c0.56,1.65,1.33,3.22,1.91,4.87c1.29,3.66,0.55,6.74-2.36,9.47
		c-8.44,7.9-8.45,17.46-0.04,25.23c2.93,2.71,3.7,5.81,2.42,9.46c-0.78,2.23-1.77,4.38-2.69,6.56c-1.65,3.92-4.59,5.58-8.86,5.41
		c-11.26-0.44-17.94,6.37-17.5,17.76c0.15,3.92-1.39,6.77-4.96,8.41c-2.26,1.04-4.56,1.99-6.89,2.86c-3.81,1.42-6.95,0.48-9.73-2.56
		c-7.48-8.2-17.35-8.15-24.98,0.1c-2.8,3.03-5.96,3.87-9.77,2.39c-1.86-0.72-3.68-1.52-5.54-2.24c-4.38-1.68-6.3-4.68-6.12-9.51
		c0.41-10.79-6.62-17.7-17.34-17.22c-4.42,0.2-7.45-1.46-9.13-5.56c-0.8-1.96-1.63-3.91-2.45-5.86c-1.73-4.11-0.66-7.37,2.62-10.34
		c7.89-7.17,7.84-17.32,0.05-24.52c-3.8-3.51-4.34-5.72-2.53-10.65c0.6-1.63,1.34-3.22,1.97-4.84c1.73-4.52,4.85-6.46,9.82-6.25
		C991.48,434.88,998.39,427.88,998.21,417.18z M1053.13,520.76c0.69-1.42,1.53-2.44,1.67-3.54c1.94-15.87,10.22-24.13,26.21-26.07
		c0.85-0.1,2.14-0.66,2.33-1.28c0.25-0.83-0.1-2.14-0.67-2.87c-9.79-12.48-9.8-24.95-0.05-37.06c0.59-0.73,1.06-2.13,0.75-2.83
		c-0.32-0.71-1.67-1.26-2.62-1.34c-14.68-1.24-24.52-10.97-25.93-25.63c-0.1-1.06-0.68-2.55-1.47-2.93
		c-0.71-0.34-2.24,0.32-3.04,0.99c-10.93,9.25-25.2,9.32-36.24,0.18c-0.88-0.73-2.34-1.29-3.36-1.09c-0.6,0.12-1.17,1.88-1.24,2.94
		c-0.94,13.86-11.71,24.56-25.69,25.54c-1.04,0.07-2.55,0.65-2.88,1.41c-0.32,0.75,0.32,2.24,0.99,3.04
		c9.37,11.26,9.34,25.16-0.11,36.51c-0.62,0.74-1.33,2.19-1.01,2.73c0.49,0.84,1.8,1.57,2.82,1.67
		c14.99,1.45,24.54,11.05,25.89,26.06c0.08,0.91,0.72,2.24,1.43,2.51c0.73,0.28,2.06-0.26,2.78-0.86
		c11.7-9.59,25.05-9.62,36.76-0.01C1051.1,519.37,1051.81,519.82,1053.13,520.76z"/>
	<path d="M792.88,656.12c-5.53-0.12-8.05-4.7-5.81-8.38c0.57-0.94,1.42-1.72,2.21-2.51c15.58-15.6,31.15-31.2,46.79-46.74
		c1.27-1.26,2.98-2.74,4.57-2.84c1.69-0.11,4.09,0.85,5.06,2.17c0.96,1.3,0.81,3.68,0.56,5.5c-0.14,1.05-1.35,2.02-2.22,2.89
		c-15.66,15.69-31.32,31.38-47.05,47C795.57,654.62,793.7,655.55,792.88,656.12z"/>
	<path d="M833.87,712.03c-5.21-0.05-7.88-4.73-5.72-8.35c0.62-1.05,1.55-1.93,2.43-2.81c10.46-10.48,20.93-20.95,31.4-31.42
		c0.62-0.62,1.21-1.27,1.89-1.8c2.5-1.92,5.06-1.98,7.46,0.11c2.33,2.04,2.57,5.17,0.32,7.66c-3.16,3.5-6.6,6.77-9.94,10.11
		c-7.91,7.92-15.8,15.87-23.79,23.71C836.57,710.58,834.76,711.44,833.87,712.03z"/>
	<path d="M898.77,712.52c-1.41-1.14-3.59-2.07-4.16-3.6c-0.63-1.69-0.56-4.66,0.53-5.82c7.07-7.54,14.4-14.85,21.87-21.99
		c2.26-2.16,5.22-1.74,7.37,0.58c2.03,2.17,2.29,5.02,0.25,7.14c-7.17,7.45-14.55,14.7-21.94,21.93
		C901.88,711.56,900.5,711.77,898.77,712.52z"/>
	<path d="M870.45,717.59c-2.89,0.07-5.31-2.17-5.39-5c-0.08-2.79,2.27-5.25,5.1-5.34c2.87-0.09,5.24,2.17,5.32,5.05
		C875.56,715.26,873.4,717.52,870.45,717.59z"/>
	<path d="M793.71,616.22c-0.11,2.8-2.61,5.15-5.41,5.06c-2.83-0.09-5.08-2.51-5-5.39c0.08-2.95,2.34-5.06,5.32-4.97
		C791.51,611.01,793.82,613.42,793.71,616.22z"/>
	<path d="M783.16,697.78c-2.81-0.03-5.13-2.44-5.1-5.31c0.03-2.95,2.25-5.13,5.21-5.1c2.86,0.03,5.24,2.41,5.19,5.21
		C788.42,695.37,785.93,697.81,783.16,697.78z"/>
	<path d="M882.68,694.32c0.07,2.81-2.26,5.19-5.13,5.24c-2.98,0.05-5.2-2.07-5.25-5.04c-0.05-2.86,2.25-5.29,5.05-5.35
		C880.12,689.13,882.61,691.53,882.68,694.32z"/>
	<path d="M1059.78,468.51c-0.09,15.44-12.58,27.8-27.96,27.68c-15.4-0.12-27.72-12.61-27.65-28.03c0.07-15.33,12.66-27.79,28-27.7
		C1047.54,440.56,1059.88,453.09,1059.78,468.51z M1031.93,452.3c-9.04,0.02-16.08,7.16-15.99,16.21c0.08,8.8,7.18,15.93,15.94,16
		c8.82,0.07,16.27-7.3,16.29-16.13C1048.19,459.46,1040.93,452.28,1031.93,452.3z"/>
</g>
<g>
</g>
<g>
</g>
<g>
</g>
<g>
</g>
<g>
</g>
<g>
</g>
<g>
</g>
<g>
</g>
<g>
</g>
<g>
</g>
<g>
</g>
<g>
</g>
<g>
</g>
<g>
</g>
<g>
</g>
</svg>
