<?xml version="1.0" encoding="utf-8"?>
<!-- Generator: Adobe Illustrator 24.3.0, SVG Export Plug-In . SVG Version: 6.00 Build 0)  -->
<svg version="1.1" id="Layer_1" xmlns="http://www.w3.org/2000/svg" xmlns:xlink="http://www.w3.org/1999/xlink" x="0px" y="0px"
	 viewBox="0 0 1920 1080" style="enable-background:new 0 0 1920 1080;" xml:space="preserve">
<g>
	<path d="M852.17,450.14c0-1.7,0-3.03,0-4.37c0-19.96-0.01-39.92,0-59.88c0.01-12.2,7.38-19.58,19.57-19.58
		c66.74-0.01,133.49-0.01,200.23,0c12.44,0,19.7,7.31,19.72,19.8c0.01,3.12,0.06,6.24-0.01,9.36c-0.1,4.43-2.3,6.68-6.71,6.74
		c-5.59,0.08-11.18,0.02-17,0.02c0,12.94,0,25.62,0,39.14c1.85-1.82,3.36-3.3,4.86-4.79c14.13-14.09,29.71-14.04,43.87,0.13
		c4.76,4.77,9.57,9.49,14.28,14.3c11.54,11.8,11.55,28.3,0.02,40.16c-4.44,4.56-9.06,8.94-13.43,13.56
		c-0.99,1.04-1.83,2.74-1.84,4.13c-0.09,47.66-0.07,95.31-0.07,142.97c0,0.48,0.09,0.96,0.18,1.91c5.36,0,10.68-0.02,16,0
		c5.78,0.02,7.86,2.18,7.73,7.96c-0.6,27.66-24.19,51.31-51.98,51.85c-14.09,0.27-28.19,0.07-42.29,0.07
		c-70.24,0-140.48,0.04-210.71-0.02c-26.09-0.02-47.6-17.5-53.12-42.98c-0.66-3.03-0.97-6.16-1.1-9.26
		c-0.22-5.36,1.99-7.57,7.28-7.61c5.35-0.04,10.71-0.01,16.6-0.01c0-1.62,0-3.05,0-4.49c0-55.52,0-111.03,0-166.55
		c0-20.24,12.37-32.55,32.68-32.56C841.9,450.14,846.85,450.14,852.17,450.14z M971.14,557.93c-1.84,0-3.2,0-4.57,0
		c-23.45,0-46.9,0-70.35,0c-5.32,0-8.17-2.16-8.1-6.09c0.07-3.82,2.82-5.87,7.93-5.88c13.47-0.01,26.94,0,40.41,0
		c11.6,0,23.2,0.05,34.8-0.07c1.21-0.01,3.08-0.69,3.49-1.59c1.5-3.22,2.51-6.68,3.71-10.05c-0.37-0.11-0.59-0.23-0.82-0.23
		c-3.37-0.02-6.74-0.01-10.1-0.04c-5.55-0.04-7.57-2.09-7.59-7.75c-0.02-6.74-0.02-13.47,0-20.21c0.01-6.07,1.94-7.96,8.11-7.97
		c13.47-0.01,26.94,0.01,40.41-0.03c1.18,0,2.7-0.04,3.48-0.73c3.78-3.3,7.36-6.83,11.01-10.28c-0.23-0.31-0.46-0.63-0.68-0.94
		c-1.34,0-2.68,0-4.02,0c-24.57,0-49.15,0-73.72-0.01c-1.25,0-2.54,0.13-3.73-0.17c-2.99-0.74-4.79-2.72-4.76-5.87
		c0.03-3.14,1.85-5.09,4.86-5.79c1.07-0.25,2.23-0.14,3.35-0.14c26.44-0.01,52.89-0.08,79.33,0.1c2.77,0.02,5.52,1.51,9.01,2.53
		c6.77-6.76,14.4-14.28,21.87-21.96c0.87-0.9,1.21-2.65,1.22-4.01c0.09-12.6,0.05-25.2,0.05-37.79c0-11.45,0-22.9,0-34.67
		c-0.64,0-1.87,0-3.1,0c-60,0-119.99,0-179.99,0c-6.83,0-8.54,1.74-8.54,8.67c0,79.58,0,159.16,0,238.74c0,1.31,0,2.62,0,3.91
		c64.13,0,127.7,0,191.35,0c0-20.89,0-41.59,0-63.5c-3.26,3.49-5.79,6.22-8.34,8.93c-7.8,8.3-17.23,13.77-28.28,16.64
		c-13.02,3.38-25.95,7.07-38.95,10.51c-5.27,1.39-10.62,3.4-15.96,3.5c-22.69,0.39-45.4,0.17-68.1,0.16c-4.99,0-7.8-2.24-7.73-6.08
		c0.06-3.82,2.81-5.88,7.92-5.89c10.98-0.01,21.95,0,32.93,0c10.72,0,21.43,0,32.35,0c1.08-3.96,2.13-7.77,3.28-11.98
		c-1.59,0-2.81,0-4.03,0c-9.73,0-19.46,0.02-29.19-0.01c-4.66-0.01-7.42-2.35-7.34-6.1c0.07-3.63,2.73-5.83,7.19-5.86
		c5.99-0.04,11.97-0.01,17.96-0.01c6.22,0,12.43,0,18.67,0C968.98,565.87,969.99,562.16,971.14,557.93z M1127.08,666.02
		c-0.75-0.13-1.23-0.28-1.71-0.28c-37.16-0.01-74.33-0.03-111.49,0.07c-1.13,0-2.72,1.08-3.3,2.1c-2.16,3.78-3.91,7.79-5.95,11.64
		c-3.52,6.64-9.1,10.09-16.64,10.11c-18.71,0.04-37.41,0.04-56.12,0c-7.55-0.02-13.1-3.5-16.61-10.15
		c-1.86-3.52-3.77-7.04-5.3-10.71c-1.04-2.49-2.51-3.14-5.09-3.13c-36.04,0.08-72.08,0.06-108.12,0.06c-1.21,0-2.42,0-3.95,0
		c0.31,1.65,0.48,2.87,0.78,4.06c4.76,18.92,21.21,31.79,41.07,31.84c33.8,0.09,67.59,0.02,101.39,0.02
		c49.39,0,98.77-0.02,148.16,0.02c9.11,0.01,17.54-2.13,25.05-7.34C1119.14,687.46,1125.1,678.08,1127.08,666.02z M1079.54,542.36
		c-3.53,3.63-6.27,6.68-9.26,9.46c-1.88,1.75-2.61,3.58-2.6,6.17c0.1,24.94,0.06,49.89,0.06,74.83c0,7.33-1.62,8.93-9.04,8.93
		c-65.85,0-131.71,0-197.56,0c-7.37,0-8.97-1.6-8.97-8.99c0-47.4,0-94.79,0-142.19c0-1.44,0-2.89,0-4.29
		c-10.55-0.82-11.98,0.47-11.98,10.35c0,50.89,0,101.78,0,152.66c0,1.43,0,2.86,0,4.25c80.12,0,159.65,0,239.36,0
		C1079.54,616.76,1079.54,580.15,1079.54,542.36z M852.09,462.12c-5.67,0-11-0.01-16.34,0c-12.16,0.03-19.51,7.4-19.51,19.61
		c-0.01,55.98,0,111.97,0,167.95c0,1.31,0,2.61,0,3.85c4.28,0,7.97,0,11.98,0c0-1.67,0-3.14,0-4.6c0-51.87-0.01-103.74,0.01-155.61
		c0-11.7,7.48-19.17,19.15-19.23c1.56-0.01,3.11,0,4.72,0C852.09,469.9,852.09,466.3,852.09,462.12z M1103.49,519.6
		c-0.25-0.2-0.51-0.4-0.76-0.6c-2.81,2.96-5.51,6.04-8.48,8.85c-1.85,1.76-2.62,3.56-2.62,6.16c0.09,38.54,0.06,77.07,0.06,115.61
		c0,1.31,0,2.63,0,3.94c4.23,0,7.93,0,11.8,0C1103.49,608.79,1103.49,564.19,1103.49,519.6z M992.83,534.06
		c-1.43,2.6-3.28,5.16-4.33,8.02c-1.84,5.01-3.06,10.24-4.79,15.29c-0.76,2.22-0.36,3.65,1.3,5.23c4.33,4.12,9.01,8.03,12.6,12.75
		c5.16,6.79,10.79,7.96,18.5,4.76c5.36-2.23,10.99-3.7,15.43-7.36C1018.65,559.85,1005.88,547.1,992.83,534.06z M1077.09,480.59
		c-19.99,19.99-39.94,39.95-59.73,59.73c2.58,2.67,5.49,5.68,8.16,8.45c20.03-20.02,40-39.97,60.04-59.99
		C1082.77,486.08,1079.76,483.17,1077.09,480.59z M1082.94,443.64c13.21,13.16,26.22,26.12,39.25,39.11
		c6.81-5.87,7.52-15.61,1.05-22.42c-5.66-5.96-11.51-11.75-17.42-17.47C1098.88,436.13,1089.36,436.62,1082.94,443.64z
		 M998.07,665.92c-25.57,0-50.64,0-76.15,0c1.4,2.86,2.64,5.4,3.88,7.94c1.28,2.62,3.36,3.85,6.28,3.84
		c18.57-0.02,37.15,0.07,55.72-0.13c1.92-0.02,4.42-1.31,5.61-2.82C995.36,672.28,996.44,669.14,998.07,665.92z M1062.27,465.39
		c-20.14,20.15-40.09,40.13-59.65,59.71c1.58,1.74,3.47,3.82,4.92,5.42c19.97-19.94,39.95-39.9,60.06-59.99
		C1065.92,468.91,1063.97,467.02,1062.27,465.39z M1100.2,504.34c-1.87-2.13-3.73-4.24-5.11-5.8c-19.99,20-39.96,39.97-59.65,59.66
		c1.63,1.66,3.6,3.66,5.39,5.49C1060.69,543.84,1080.6,523.94,1100.2,504.34z M1073.37,453c-0.98,1.04-1.96,2.08-2.53,2.68
		c13.25,13.25,26.17,26.19,39.29,39.31c0.8-0.72,1.87-1.67,2.73-2.44C1099.55,479.21,1086.62,466.27,1073.37,453z M998.94,510.99
		c-0.22-0.26-0.44-0.51-0.66-0.77c-8.67,0-17.34,0-26.11,0c0,3.98,0,7.75,0,11.78c4.7,0,9.17,0.04,13.63-0.04
		c0.8-0.01,1.79-0.27,2.35-0.78C991.8,517.84,995.35,514.4,998.94,510.99z M974.49,591.33c6.24-1.72,11.56-3.19,16.76-4.62
		c-4.12-4.14-8.01-8.06-12.14-12.21C977.65,579.78,976.19,585.11,974.49,591.33z M1079.74,390.08c-0.34-3.91,1.37-8.27-2.81-10.6
		c-1.68-0.94-4.8-0.93-6.46,0.04c-4.08,2.37-2.53,6.67-2.63,10.56C1071.78,390.08,1075.46,390.08,1079.74,390.08z"/>
	<path d="M924.04,462.12c-9.48,0-18.96,0.02-28.44-0.01c-5.38-0.02-7.48-2.1-7.49-7.47c-0.03-14.97-0.03-29.94,0-44.91
		c0.01-5.39,2.09-7.48,7.46-7.49c18.96-0.02,37.92-0.02,56.88,0c5.38,0.01,7.49,2.1,7.5,7.46c0.03,14.97,0.03,29.94,0,44.91
		c-0.01,5.38-2.11,7.48-7.47,7.5C943,462.14,933.52,462.12,924.04,462.12z M900.24,449.87c16.06,0,31.8,0,47.44,0
		c0-12.03,0-23.79,0-35.46c-15.96,0-31.62,0-47.44,0C900.24,426.28,900.24,437.95,900.24,449.87z"/>
	<path d="M1001.84,426.19c7.61,0,15.22-0.03,22.83,0.01c4.41,0.02,7.1,2.32,7.12,5.94c0.02,3.62-2.68,6-7.05,6.01
		c-15.22,0.03-30.44,0.03-45.65,0c-4.42-0.01-7.09-2.32-7.11-5.95c-0.02-3.65,2.64-5.98,7.05-6
		C986.62,426.16,994.23,426.19,1001.84,426.19z"/>
	<path d="M1002.24,450.14c7.48,0,14.97-0.03,22.45,0.01c4.4,0.03,7.09,2.34,7.09,5.97c0,3.62-2.69,5.97-7.08,5.98
		c-15.22,0.03-30.44,0.03-45.65,0c-4.41-0.01-7.08-2.34-7.09-5.97c0-3.65,2.65-5.95,7.07-5.98
		C986.77,450.11,994.5,450.14,1002.24,450.14z"/>
	<path d="M918.21,510.02c-7.61,0-15.22,0.03-22.83-0.01c-4.5-0.02-7.15-2.18-7.26-5.8c-0.12-3.75,2.64-6.15,7.27-6.16
		c15.09-0.03,30.19-0.03,45.28,0c4.48,0.01,7.15,2.2,7.27,5.79c0.12,3.73-2.67,6.14-7.28,6.16
		C933.18,510.05,925.7,510.02,918.21,510.02z"/>
	<path d="M917.72,533.98c-7.48,0-14.97,0.03-22.45-0.01c-4.43-0.02-7.1-2.29-7.14-5.92c-0.04-3.65,2.63-6.02,7.02-6.03
		c15.22-0.04,30.44-0.03,45.65,0c4.43,0.01,7.11,2.29,7.14,5.91c0.04,3.63-2.66,6.01-7.03,6.04
		C933.19,534.01,925.45,533.98,917.72,533.98z"/>
	<path d="M1007.71,414.21c-5.61,0-11.23,0.04-16.84-0.01c-4.33-0.04-7.03-2.49-6.93-6.12c0.09-3.51,2.69-5.8,6.85-5.82
		c11.35-0.05,22.7-0.05,34.05,0c4.33,0.02,7.03,2.48,6.94,6.11c-0.09,3.5-2.7,5.79-6.86,5.83
		C1019.19,414.26,1013.45,414.21,1007.71,414.21z"/>
	<path d="M911.86,486.05c-2,0-4,0.12-5.98-0.03c-3.5-0.26-5.88-2.87-5.77-6.12c0.1-3.12,2.41-5.6,5.77-5.73
		c4.11-0.17,8.23-0.17,12.34,0c3.35,0.14,5.67,2.62,5.78,5.73c0.11,3.24-2.28,5.87-5.77,6.13
		C916.11,486.17,913.98,486.05,911.86,486.05z"/>
	<path d="M899.77,581.87c-1.87,0-3.75,0.09-5.61-0.02c-3.58-0.21-5.99-2.63-6.03-5.89c-0.04-3.27,2.34-5.86,5.88-6
		c3.98-0.16,7.98-0.15,11.97-0.01c3.57,0.12,5.99,2.61,6.04,5.87c0.04,3.26-2.36,5.79-5.89,6.02
		C904.01,581.98,901.89,581.86,899.77,581.87z"/>
</g>
<g>
</g>
<g>
</g>
<g>
</g>
<g>
</g>
<g>
</g>
<g>
</g>
<g>
</g>
<g>
</g>
<g>
</g>
<g>
</g>
<g>
</g>
<g>
</g>
<g>
</g>
<g>
</g>
<g>
</g>
</svg>
