<?xml version="1.0" encoding="utf-8"?>
<!-- Generator: Adobe Illustrator 24.3.0, SVG Export Plug-In . SVG Version: 6.00 Build 0)  -->
<svg version="1.1" id="Layer_1" xmlns="http://www.w3.org/2000/svg" xmlns:xlink="http://www.w3.org/1999/xlink" x="0px" y="0px"
	 viewBox="0 0 1920 1080" style="enable-background:new 0 0 1920 1080;" xml:space="preserve">
<g>
	<path d="M915.81,672.89c-1.75-5.83-3.18-10.6-4.61-15.39c-0.48,0.44-1.48,1.28-2.4,2.2c-11.03,11.02-22.02,22.09-33.13,33.04
		c-1.45,1.43-3.33,2.61-5.23,3.35c-24.5,9.51-49,18.98-73.57,28.31c-11.71,4.44-23.26-3.72-22.44-15.73
		c0.15-2.19,0.87-4.4,1.66-6.47c9.21-24.08,18.44-48.15,27.8-72.18c0.87-2.23,2.34-4.4,4.03-6.11
		c15.98-16.14,32.03-32.19,48.15-48.19c1.83-1.81,2.31-3.24,1.33-5.79c-5.6-14.56-6.19-29.64-4.11-44.94
		c0.08-0.62,0.21-1.23,0.27-1.85c0.02-0.22-0.1-0.46-0.23-1.03c-6.63,0-13.35,0.06-20.06-0.01c-9.47-0.11-19.05,0.54-28.38-0.67
		c-16.64-2.15-28.63-15.33-30.4-31.8c-1.69-15.75,7.68-30.88,22.95-37.03c0.69-0.28,1.37-0.55,1.48-0.59
		c0-7.5-0.72-14.75,0.13-21.81c2.98-24.85,21.93-45.22,46.2-50.41c25.08-5.37,50.28,5.18,63.57,26.89c1.68,2.75,3.11,3.11,6.16,2.61
		c20.41-3.38,36.76,3.49,48.76,20.33c1.55,2.17,3.19,2.94,5.71,3.32c7.01,1.04,14.02,2.23,20.9,3.9c2.86,0.69,4.48,0.15,6.45-1.83
		c21.99-22.12,44-44.22,66.14-66.19c17.95-17.82,45.41-19.31,64.67-3.73c22.57,18.26,24.34,51.17,3.65,72.08
		c-21.85,22.08-43.86,44.01-65.92,65.87c-2.36,2.34-2.77,4.26-1.98,7.45c1.65,6.63,2.61,13.42,3.85,20.15
		c0.2,1.08,0.33,2.18,0.53,3.51c4.04,0,7.87,0,12.08,0c0,4.11-0.01,7.94,0,11.77c0.02,5.12,2.3,8.9,6.99,10.97
		c4.85,2.14,9.34,1.25,13.07-2.47c2.81-2.8,5.35-5.88,7.91-8.74c8.98,8.99,17.26,17.28,26.39,26.42c-2.65,2.3-5.57,4.61-8.21,7.2
		c-4.3,4.23-5.3,8.79-3.13,13.57c2.26,4.96,6.24,7.23,11.66,7.13c3.59-0.06,7.18-0.01,10.98-0.01c0,11.98,0,23.66,0,35.94
		c-3.57,0-7.26,0.05-10.94-0.01c-5.4-0.09-9.48,2.05-11.67,7.07c-2.26,5.19-0.94,9.76,3.04,13.61c2.59,2.51,5.26,4.95,7.62,7.16
		c-8.73,8.7-17.08,17.03-26.13,26.05c-1.99-2.24-4.39-5.09-6.95-7.78c-3.7-3.89-8.12-5.22-13.26-3.21c-4.81,1.88-7.34,6-7.38,11.87
		c-0.02,3.59,0,7.18,0,10.94c-12.03,0-23.7,0-35.94,0c0-3.53-0.08-7.09,0.02-10.65c0.15-5.54-1.95-9.78-7.13-12.02
		c-5.37-2.32-9.98-0.77-13.86,3.37c-2.38,2.54-4.74,5.11-7.48,8.06c-2.42-2.77-4.42-5.08-7.17-8.23
		c-0.73,9.76-4.78,15.73-12.79,18.84c-0.83,0.32-1.38,1.61-1.84,2.56c-6.77,14.13-17.89,22.09-33.6,22.08
		c-15.71,0-26.82-7.97-33.6-22.09c-0.5-1.03-1.23-2.22-2.18-2.73C911.29,693.95,908.67,684.38,915.81,672.89z M858.45,474
		c-0.45-9.38,5.76-18.27,15.06-22.17c1.33-0.56,2.97-2.01,3.21-3.28c2.54-13.73,9.54-24.46,21.06-32.29
		c0.68-0.46,1.26-1.05,1.85-1.55c-10.94-20.34-36.23-29.55-58.18-21.35c-21.98,8.2-35.38,32.33-30.3,54.41
		c0.43,1.87,1.32,2.49,3.19,2.84c3.41,0.62,6.88,1.38,10.06,2.69c13.21,5.45,22.64,19.92,21.45,32.7c-3.79,0-7.6,0-11.41,0
		c-0.27-1.63-0.47-3.11-0.77-4.55c-2.6-12.27-13.97-20.58-26.12-19.09c-12.64,1.54-21.83,12.48-21.2,25.23
		c0.64,12.82,11.21,22.55,24.73,22.56c53.28,0.03,106.56,0.01,159.84,0.01c0.75,0,1.5,0.01,2.25-0.04
		c9.05-0.61,16.39-8.12,16.75-17.12c0.37-9.25-6.32-17.29-15.5-18.64c-8.75-1.28-17.35,4.41-19.7,13.07
		c-0.41,1.52-0.67,3.08-0.97,4.47c-4.02,0-7.81,0-11.75,0c0.5-9.99,4.22-18.21,12.34-23.49c4.5-2.92,5.53-6.55,5.64-11.16
		c0.44-18.57-12.77-33.9-31.62-36.7c-17.2-2.55-34.36,9.24-39.06,26.71c-0.73,2.73-0.42,4.08,2.51,5.3
		c8.95,3.73,14.74,12.98,13.9,21.48c-3.8,0-7.61,0-11.39,0c-1.52-7.31-5.46-11.6-11.32-11.65c-2.48-0.02-5.62,0.5-7.3,2.04
		c-2.76,2.52-4.57,6.07-7.06,9.6C865.85,474,862.15,474,858.45,474z M993.68,641.88c6.37-15.72,17.99-27.56,29.9-39.18
		c3.84-3.75,7.61-7.57,11.31-11.45c12.49-13.1,20.11-28.42,20.85-46.74c1.78-43.9-26.07-83.22-68.14-96.06
		c-5.39-1.65-11.01-2.57-16.46-3.81c0.36,6.31,0.68,11.83,1,17.47c0.55,0.05,1.16,0.11,1.78,0.16c15.34,1.3,27.25,13.3,27.97,28.19
		c0.75,15.39-9.6,28.71-25.01,31.02c-7.09,1.06-14.42,0.51-21.65,0.62c-4.32,0.07-8.63,0.01-13.18,0.01c0,5.58-0.01,10.68,0,15.77
		c0.01,6.32,1.89,8.18,8.29,8.18c15.1,0.01,30.19-0.04,45.29,0.02c8.3,0.03,15.21,5.13,17.5,12.7c3.5,11.6-4.97,23.11-17.32,23.19
		c-19.59,0.12-39.17,0.02-58.76,0.05c-4.33,0.01-7.03,2.48-6.94,6.11c0.09,3.5,2.7,5.77,6.85,5.84c3.49,0.06,6.99-0.01,10.48,0.02
		c10.91,0.11,18.49,7.73,18.56,18.71c0.05,8.48,0,16.97,0.02,25.45c0,1.19,0.11,2.39,0.17,3.7
		C975.51,641.88,984.47,641.88,993.68,641.88z M866.04,522.26c-4.48,23.48-1.31,45.03,14.44,63.47
		c7.03,8.23,14.93,15.74,22.53,23.48c9.05,9.22,17.3,18.98,22.64,30.92c0.36,0.81,1.51,1.78,2.31,1.79c8.57,0.13,17.14,0.08,26,0.08
		c0-10.54,0.17-20.61-0.09-30.68c-0.09-3.41-2.64-5.26-6.12-5.32c-3.99-0.08-7.99,0.05-11.98-0.05
		c-9.96-0.26-17.74-8.26-17.68-18.08c0.06-9.65,7.8-17.52,17.57-17.81c2.74-0.08,5.49-0.02,8.23-0.02c16.97,0,33.94,0.02,50.9-0.01
		c4.26-0.01,6.86-2.13,7.09-5.59c0.25-3.74-2.56-6.35-7.07-6.36c-14.85-0.03-29.69-0.01-44.54-0.02
		c-13.02-0.01-20.21-7.14-20.22-20.06c-0.01-5.2,0-10.39,0-15.73C908.58,522.26,887.53,522.26,866.04,522.26z M1019.93,623.72
		c-6.83,7.16-12.12,14.99-15.55,24.02c-0.29,0.77,0.46,2.08,0.97,3c2.13,3.83,3.09,7.82,2.29,12.22c-0.17,0.94,0.02,2.27,0.6,2.97
		c2.04,2.49,4.32,4.78,6.59,7.23c8.17-7.1,16.81-9.33,26.44-5.28c9.57,4.02,14.04,11.75,14.8,21.69c4.09,0,7.88,0,11.62,0
		c0.79-10.35,5.4-17.85,14.89-21.76c9.62-3.96,18.26-1.61,25.76,4.88c2.89-2.79,5.56-5.37,8.36-8.08c-6.71-7.77-9-16.4-4.96-26.04
		c4.01-9.57,11.72-14.08,21.71-14.81c0-4.08,0-7.88,0-11.63c-10.32-0.79-17.85-5.37-21.76-14.87c-3.95-9.62-1.66-18.27,4.77-25.68
		c-2.75-2.92-5.3-5.62-8-8.48c-7.13,6.18-15.1,8.69-24.26,5.64c-9.21-3.07-14.32-9.82-16.23-18.5c-2.25,8.38-4.58,17.05-6.88,25.64
		c26.26,0.43,41.67,20.54,42.59,39.84c1.01,21.08-13.86,39.99-34,43.43C1046.01,663.17,1028.35,650.73,1019.93,623.72z
		 M1064.98,384.04c17.14,17.15,34.06,34.07,51.06,51.09c12.52-10.23,20.56-22.84,16.75-40.05c-3.22-14.54-12.52-24.1-26.96-27.61
		C1088.38,363.21,1075.44,371.19,1064.98,384.04z M858.31,687.98c-15.45-15.46-30.78-30.81-46.16-46.19
		c-4.66,12.09-9.5,24.6-14.22,37.15c-0.28,0.75,0.24,2.18,0.86,2.83c6.44,6.59,12.95,13.11,19.56,19.54
		c0.69,0.67,2.3,1.09,3.16,0.77C833.95,697.41,846.33,692.6,858.31,687.98z M839.74,650.22c14.5-14.51,28.99-29,43.28-43.3
		c-6.03-7.03-12.42-14.49-18.46-21.54c-14.77,14.78-29.88,29.9-44.82,44.85C826.37,636.86,833.31,643.8,839.74,650.22z
		 M869.98,680.18c13.61-13.62,27.46-27.48,41.95-41.98c-5.93-7.17-12.22-14.78-18.05-21.84c-15.14,15.15-29.69,29.7-43.89,43.91
		C856.52,666.78,863.47,673.7,869.98,680.18z M1091.76,619.84c0.06-19-14.53-32.94-31.71-31.65c-3.25,0.24-7.12,1.29-9.41,3.39
		c-5.67,5.2-10.63,11.17-15.76,16.94c-1.09,1.23-2.12,2.84-2.39,4.41c-1.99,11.59,1.76,21.27,10.89,28.45
		c9.65,7.6,20.51,8.79,31.58,3.38C1085.88,639.42,1091.17,630.14,1091.76,619.84z M1038.22,411.88
		c-10.44,10.36-20.9,20.75-31.01,30.79c8,5.37,16.33,10.96,24.26,16.28c8.88-8.83,18.02-17.93,26.99-26.85
		C1051.72,425.37,1044.79,418.44,1038.22,411.88z M1088.3,462.48c-6.93-6.92-13.93-13.92-20.43-20.42
		c-8.81,8.79-17.93,17.88-26.68,26.61c5.41,8.1,10.97,16.44,16.37,24.53C1067.74,483.02,1078.13,472.64,1088.3,462.48z
		 M1106.64,444.69c-17.19-17.16-34.17-34.12-50.75-50.67c-2.76,2.72-5.81,5.73-8.22,8.1c16.79,16.79,33.75,33.76,50.66,50.67
		C1100.9,450.3,1103.83,447.43,1106.64,444.69z M960.39,653.91c-9.61,0-19.21-0.02-28.82,0.01c-4.72,0.01-7.46,2.25-7.46,5.98
		c0,3.73,2.74,5.98,7.45,5.99c18.96,0.02,37.92,0.02,56.89,0c4.71,0,7.47-2.26,7.47-5.98c0-3.73-2.74-5.97-7.46-5.98
		C979.1,653.89,969.75,653.91,960.39,653.91z M959.87,689.85c9.61,0,19.21,0.02,28.82-0.01c4.45-0.02,7.14-2.24,7.23-5.84
		c0.09-3.74-2.68-6.12-7.32-6.12c-19.09-0.02-38.17-0.02-57.26,0c-4.49,0.01-7.14,2.21-7.23,5.83c-0.1,3.75,2.66,6.11,7.31,6.13
		C940.9,689.87,950.38,689.85,959.87,689.85z M939.11,702.03c5.34,7.96,12.38,11.83,21.33,11.69c8.63-0.13,15.37-4.03,20.47-11.69
		C966.84,702.03,953.31,702.03,939.11,702.03z M792.37,693.26c-1.88,4.87-3.97,9.9-5.73,15.03c-1.11,3.24,1.75,6.32,4.95,5.26
		c5.24-1.73,10.33-3.89,15.33-5.82C801.97,702.8,797.23,698.09,792.37,693.26z"/>
	<path d="M1061.74,635.92c-9.92-0.05-17.99-8.29-17.86-18.24c0.13-9.76,8.26-17.72,18.05-17.67c9.93,0.04,17.99,8.28,17.86,18.24
		C1079.66,628,1071.52,635.97,1061.74,635.92z M1067.79,618.09c0.07-3.24-2.59-6.01-5.83-6.08c-3.24-0.07-6.01,2.59-6.08,5.83
		c-0.07,3.24,2.59,6.02,5.83,6.09C1064.93,624,1067.72,621.33,1067.79,618.09z"/>
</g>
<g>
</g>
<g>
</g>
<g>
</g>
<g>
</g>
<g>
</g>
<g>
</g>
<g>
</g>
<g>
</g>
<g>
</g>
<g>
</g>
<g>
</g>
<g>
</g>
<g>
</g>
<g>
</g>
<g>
</g>
</svg>
