<?xml version="1.0" encoding="utf-8"?>
<!-- Generator: Adobe Illustrator 24.3.0, SVG Export Plug-In . SVG Version: 6.00 Build 0)  -->
<svg version="1.1" id="Layer_1" xmlns="http://www.w3.org/2000/svg" xmlns:xlink="http://www.w3.org/1999/xlink" x="0px" y="0px"
	 viewBox="0 0 1920 1080" style="enable-background:new 0 0 1920 1080;" xml:space="preserve">
<g>
	<path d="M1149.99,553.38c0,22.76,0,45.51,0,68.27c-2.16,6.52-4.89,12.76-11.01,16.53c-3.4,2.1-7.22,3.52-11.25,5.44
		c0,0.87,0,2.22,0,3.56c0,13.48,0.07,26.96-0.05,40.44c-0.03,3.56-0.29,7.2-1.1,10.65c-4.54,19.24-20.74,31.64-41.23,31.65
		c-88.55,0.02-177.09,0.01-265.64,0.01c-3.22,0-6.43,0.06-9.65-0.04c-22.28-0.67-39.9-18.27-39.95-40.55
		c-0.15-67.52-0.13-135.04,0-202.57c0.03-18.7,12.89-34.58,31-39.12c2.24-0.56,4.54-0.9,7.06-1.39c-1.46-4.07-2.82-7.89-4.21-11.71
		c-6.1-16.76,0.19-30.33,16.85-36.38c44.18-16.04,88.35-32.09,132.53-48.13c2.47,0,4.95,0,7.42,0c0.44,0.2,0.87,0.5,1.33,0.6
		c9.91,2.1,16.44,8.04,19.88,17.47c2.58,7.07,5.27,14.1,7.58,21.26c0.92,2.84,2.18,3.75,5.2,3.73c22.12-0.15,44.24-0.11,66.36-0.07
		c16.26,0.03,27.23,11,27.29,27.19c0.02,5.68,0,11.37,0,17.05c0,3.04,0,6.07,0,9.04c24.82,2.88,39.32,19.18,39.33,43.67
		c0,12.98,0.04,25.95-0.04,38.92c-0.01,2.16,0.43,3.25,2.81,3.77c5.21,1.12,9.9,3.71,12.94,8.06
		C1146.13,544.6,1147.84,549.14,1149.99,553.38z M1105.42,531.8c0-15.7,0.25-30.79-0.09-45.87c-0.22-9.84-8.53-17.18-18.8-17.18
		c-91.76-0.04-183.52-0.04-275.29,0c-11.03,0-18.91,7.97-18.92,19.02c-0.03,66.9-0.03,133.81,0,200.71
		c0.01,11.19,7.98,19.16,19.22,19.16c91.51,0.03,183.03,0.03,274.54,0c11.43,0,19.3-7.97,19.35-19.42
		c0.05-10.51,0.01-21.02,0.01-31.54c0-4.42,0-8.83,0-13.59c-1.96,0-3.54,0.02-5.11,0c-14.33-0.19-28.76,0.57-42.98-0.78
		c-26.98-2.57-48.01-26.62-48.36-53.78c-0.36-27.94,19.79-52.09,46.86-55.97c4.38-0.63,8.86-0.7,13.3-0.73
		C1081.13,531.74,1093.1,531.8,1105.42,531.8z M936.28,446.46c0-9.52-0.1-18.64,0.02-27.76c0.2-14.18,11.34-25.32,25.47-25.64
		c1.66-0.04,3.32-0.01,5.46-0.01c-2.16-6.07-4.06-11.53-6.06-16.95c-1.37-3.7-2.79-4.34-6.55-2.98
		c-42.34,15.39-84.67,30.8-126.99,46.23c-3.88,1.41-4.48,2.83-3.05,6.83c2.05,5.69,4.32,11.31,6.18,17.05
		c0.84,2.58,2.11,3.29,4.74,3.28c28.56-0.1,57.12-0.06,85.69-0.06C926.02,446.46,930.83,446.46,936.28,446.46z M1092.77,554.06
		c0,0.01,0,0.01,0,0.02c-9.52,0-19.04-0.12-28.56,0.03c-18.32,0.29-32.9,15.06-32.94,33.23c-0.04,18.15,14.41,33.16,32.76,33.43
		c19.53,0.28,39.07,0.09,58.6,0.07c3.86,0,5.08-1.25,5.09-5.13c0.03-18.79,0.02-37.58,0-56.38c0-4.18-1.08-5.24-5.28-5.26
		C1112.55,554.04,1102.66,554.06,1092.77,554.06z M1066.13,446.29c0-8.53,0.01-16.78,0-25.03c-0.01-5.14-0.83-5.96-6.06-5.96
		c-31.87-0.01-63.75,0-95.62,0c-0.74,0-1.7-0.28-2.18,0.08c-1.34,1-3.49,2.24-3.53,3.44c-0.3,9.09-0.16,18.2-0.16,27.47
		C994.49,446.29,1030.02,446.29,1066.13,446.29z"/>
	<path d="M1053.53,587.19c0.13-6.05,5.17-10.91,11.26-10.84c6.07,0.07,11.01,5.07,10.98,11.13c-0.03,6.13-5.37,11.31-11.45,11.1
		C1058.32,598.36,1053.4,593.17,1053.53,587.19z"/>
</g>
<g>
</g>
<g>
</g>
<g>
</g>
<g>
</g>
<g>
</g>
<g>
</g>
<g>
</g>
<g>
</g>
<g>
</g>
<g>
</g>
<g>
</g>
<g>
</g>
<g>
</g>
<g>
</g>
<g>
</g>
</svg>
